<?xml version="1.0" standalone="no"?>
<!DOCTYPE svg PUBLIC "-//W3C//DTD SVG 1.1//EN" "http://www.w3.org/Graphics/SVG/1.1/DTD/svg11.dtd" >
<svg xmlns="http://www.w3.org/2000/svg">
<metadata>
This is a custom SVG font generated by IcoMoon.
<iconset grid="20"></iconset>
</metadata>
<defs>
<font id="icomoon" horiz-adv-x="640" >
<font-face units-per-em="640" ascent="608" descent="-32" />
<missing-glyph horiz-adv-x="640" />
<glyph class="hidden" unicode="&#xf000;" d="M0,608L 640 -32L0 -32 z" horiz-adv-x="0" />
<glyph unicode="&#xf02e;" d="M 415.714,562.286q 8.214,0 15.714-3.214q 11.786-4.643 18.75-14.643t 6.964-22.143l0-460.357 q0-12.143 -6.964-22.143t-18.75-14.643q-6.786-2.857 -15.714-2.857q-17.143,0 -29.643,11.429l-157.5,151.429l-157.5-151.429q-12.857-11.786 -29.643-11.786q-8.214,0 -15.714,3.214q-11.786,4.643 -18.75,14.643t-6.964,22.143l0,460.357 q0,12.143 6.964,22.143t 18.75,14.643q 7.5,3.214 15.714,3.214l 374.286,0 z" horiz-adv-x="457.143" data-tags="bookmark, favorite, ribbon" />
<glyph unicode="&#xf0ac;" d="M 274.286,562.286q 74.643,0 137.679-36.786t 99.821-99.821t 36.786-137.679t-36.786-137.679t-99.821-99.821t-137.679-36.786t-137.679,36.786t-99.821,99.821t-36.786,137.679t 36.786,137.679t 99.821,99.821t 137.679,36.786zM 372.143,376.214q-0.714-0.357 -3.393-3.393t-4.821-3.393q 0.714,0 1.607,1.786t 1.786,3.929t 1.25,2.5q 2.143,2.5 7.857,5.357q 5,2.143 18.571,4.286q 12.143,2.857 18.214-3.929 q-0.714,0.714 3.393,4.643t 5.179,4.286q 1.071,0.714 5.357,1.607t 5.357,2.679l 0.714,7.857q-4.286-0.357 -6.25,2.5t-2.321,7.5q0-0.714 -2.143-2.857q0,2.5 -1.607,2.857t-4.107-0.357t-3.214-0.357q-3.571,1.071 -5.357,2.679t-2.857,5.893t-1.429,5.357q-0.714,1.786 -3.393,3.75t-3.393,3.75q-0.357,0.714 -0.893,1.964t-1.071,2.321t-1.429,1.964t-1.964,0.893t-2.5-1.786t-2.679-3.571t-1.607-1.786q-1.071,0.714 -2.143,0.536t-1.607-0.357t-1.607-1.071t-1.786-1.25 q-1.071-0.714 -3.036-1.071t-3.036-0.714q 5.357,1.786 -0.357,3.929q-3.571,1.429 -5.714,1.071q 3.214,1.429 2.679,4.286t-3.036,5l 1.786,0 q-0.357,1.429 -3.036,3.036t-6.25,3.036t-4.643,2.143q-2.857,1.786 -12.143,3.393t-11.786,0.179q-1.786-2.143 -1.607-3.75t 1.429-5t 1.25-4.464q 0.357-2.143 -1.964-4.643t-2.321-4.286q0-2.5 5-5.536t 3.571-7.679q-1.071-2.857 -5.714-5.714t-5.714-4.286q-1.786-2.857 -0.536-6.607t 3.75-5.893 q 0.714-0.714 0.536-1.429t-1.25-1.607t-1.964-1.429t-2.321-1.25l-1.071-0.714q-3.929-1.786 -7.321,2.143t-4.821,9.286q-2.5,8.929 -5.714,10.714q-8.214,2.857 -10.357-0.357q-1.786,4.643 -14.643,9.286q-8.929,3.214 -20.714,1.429q 2.143,0.357 0,5.357q-2.5,5.357 -6.786,4.286q 1.071,2.143 1.429,6.25t 0.357,4.821q 1.071,4.643 4.286,8.214q 0.357,0.357 2.5,3.036t 3.393,4.821t 0.179,2.143q 12.5-1.429 17.857,3.929q 1.786,1.786 4.107,6.071t 3.75,6.071q 3.214,2.143 5,1.964t 5.179-1.964 t 5.179-1.786q 5-0.357 5.536,3.929t-2.679,7.143q 4.286-0.357 1.071,6.071q-1.786,2.5 -2.857,3.214q-4.286,1.429 -9.643-1.786q-2.857-1.429 0.714-2.857q-0.357,0.357 -3.393-3.75t-5.893-6.25t-5.714,1.786q-0.357,0.357 -1.964,4.821t-3.393,4.821q-2.857,0 -5.714-5.357q 1.071,2.857 -3.929,5.357t-8.571,2.857q 6.786,4.286 -2.857,9.643q-2.5,1.429 -7.321,1.786t-6.964-1.429q-1.786-2.5 -1.964-4.107t 1.786-2.857t 3.75-1.964t 4.107-1.429t 3.036-1.071 q 5-3.571 2.857-5q-0.714-0.357 -3.036-1.25t-4.107-1.607t-2.143-1.429q-1.071-1.429 0-5t-0.714-5q-1.786,1.786 -3.214,6.25t-2.5,5.893q 2.5-3.214 -8.929-2.143l-3.571,0.357q-1.429,0 -5.714-0.714t-7.321-0.357t-4.821,2.857q-1.429,2.857 0,7.143q 0.357,1.429 1.429,0.714q-1.429,1.071 -3.929,3.393t-3.571,3.036q-16.429-5.357 -33.571-14.643q 2.143-0.357 4.286,0.357q 1.786,0.714 4.643,2.321t 3.571,1.964q 12.143,5 15,2.5l 1.786,1.786q 5-5.714 7.143-8.929 q-2.5,1.429 -10.714,0.357q-7.143-2.143 -7.857-4.286q 2.5-4.286 1.786-6.429q-1.429,1.071 -4.107,3.571t-5.179,3.929t-5.357,1.786q-5.714,0 -7.857-0.357q-52.143-28.571 -83.929-79.286q 2.5-2.5 4.286-2.857q 1.429-0.357 1.786-3.214t 0.893-3.929t 4.107,1.071q 3.214-2.857 1.071-6.786q 0.357,0.357 15.714-9.643q 6.786-6.071 7.5-7.5q 1.071-3.929 -3.571-6.429q-0.357,0.714 -3.214,3.214t-3.214,1.429q-1.071-1.786 0.179-6.607t 3.75-4.464q-2.5,0 -3.393-5.714t-0.893-12.679 t-0.357-8.393l 0.714-0.357q-1.071-4.286 1.964-12.321t 7.679-6.964q-4.643-1.071 7.143-15.357q 2.143-2.857 2.857-3.214q 1.071-0.714 4.286-2.679t 5.357-3.571t 3.571-3.75q 1.429-1.786 3.571-8.036t 5-8.393q-0.714-2.143 3.393-7.143t 3.75-8.214q-0.357,0 -0.893-0.357t-0.893-0.357q 1.071-2.5 5.536-5t 5.536-4.643q 0.357-1.071 0.714-3.571t 1.071-3.929t 2.857-0.714q 0.714,7.143 -8.571,22.143q-5.357,8.929 -6.071,10.357q-1.071,1.786 -1.964,5.536 t-1.607,5.179q 0.714,0 2.143-0.536t 3.036-1.25t 2.679-1.429t 0.714-1.071q-1.071-2.5 0.714-6.25t 4.286-6.607t 6.071-6.786t 4.286-4.643q 2.143-2.143 5-6.964t0-4.821q 3.214,0 7.143-3.571t 6.071-7.143q 1.786-2.857 2.857-9.286t 1.786-8.571q 0.714-2.5 3.036-4.821t 4.464-3.393l 5.714-2.857t 4.643-2.5q 1.786-0.714 6.607-3.75t 7.679-4.107q 3.571-1.429 5.714-1.429t 5.179,0.893t 4.821,1.25q 5.357,0.714 10.357-5.357t 7.5-7.5 q 12.857-6.786 19.643-3.929q-0.714-0.357 0.179-2.679t 2.857-5.536t 3.214-5.179t 1.964-3.036q 1.786-2.143 6.429-5.357t 6.429-5.357q 2.143,1.429 2.5,3.214q-1.071-2.857 2.5-7.143t 6.429-3.571q 5,1.071 5,11.429q-11.071-5.357 -17.5,6.429q0,0.357 -0.893,1.964t-1.429,3.036t-0.893,3.036t0,2.679t 1.786,1.071q 3.214,0 3.571,1.25t-0.714,4.464t-1.429,4.643q-0.357,2.857 -3.929,7.143t-4.286,5.357q-1.786-3.214 -5.714-2.857t-5.714,3.214q0-0.357 -0.536-1.964t-0.536-2.321 q-4.643,0 -5.357,0.357q 0.357,1.071 0.893,6.25t 1.25,8.036q 0.357,1.429 1.964,4.286t 2.679,5.179t 1.429,4.464t-1.607,3.393t-6.25,0.893q-6.786-0.357 -9.286-7.143q-0.357-1.071 -1.071-3.75t-1.786-4.107t-3.214-2.5q-2.5-1.071 -8.571-0.714t-8.571,1.786q-4.643,2.857 -8.036,10.357t-3.393,13.214q0,3.571 0.893,9.464t 1.071,8.929t-1.964,8.75q 1.071,0.714 3.214,3.393t 3.571,3.75q 0.714,0.357 1.607,0.536t 1.607,0t 1.429,0.536t 1.071,2.143q-0.357,0.357 -1.429,1.071 q-1.071,1.071 -1.429,1.071q 2.5-1.071 10.179,0.536t 9.821-0.536q 5.357-3.929 7.857,0.714q0,0.357 -0.893,3.393t-0.179,4.821q 1.786-9.643 10.357-3.214q 1.071-1.071 5.536-1.786t 6.25-1.786q 1.071-0.714 2.5-1.964t 1.964-1.607t 1.786,0.179t 3.036,2.321q 3.571-5 4.286-8.571q 3.929-14.286 6.786-15.714q 2.5-1.071 3.929-0.714t 1.607,3.393t0,5t-0.536,4.464l-0.357,2.857l0,6.429 l-0.357,2.857q-5.357,1.071 -6.607,4.286t 0.536,6.607t 5.357,6.607q 0.357,0.357 2.857,1.25 t 5.536,2.321t 4.464,2.857q 7.5,6.786 5.357,12.5q 2.5,0 3.929,3.214q-0.357,0 -1.786,1.071t-2.679,1.786t-1.607,0.714q 3.214,1.786 0.714,5.714q 1.786,1.071 2.679,3.929t 2.679,3.571q 3.214-4.286 7.5-0.714q 2.5,2.857 0.357,5.714q 1.786,2.5 7.321,3.75t 6.607,3.393q 2.5-0.714 2.857,0.714t 0.357,4.286t 1.071,4.286q 1.429,1.786 5.357,3.214t 4.643,1.786l 6.071,3.929q 1.071,1.429 0,1.429q 6.429-0.714 11.071,3.929q 3.571,3.929 -2.143,7.143q 1.071,2.143 -1.071,3.393t-5.357,1.964q 1.071,0.357 4.107,0.179t 3.75,0.536 q 5.357,3.571 -2.5,5.714q-6.071,1.786 -15.357-4.286zM 313.929,63q 73.571,12.857 125.357,67.5q-1.071,1.071 -4.464,1.607t-4.464,1.25q-6.429,2.5 -8.571,2.857q 0.357,2.5 -0.893,4.643t-2.857,3.214t-4.464,2.857t-3.929,2.5q-0.714,0.714 -2.5,2.143t-2.5,1.964t-2.679,1.607t-3.036,0.714t-3.571-0.357l-1.071-0.357q-1.071-0.357 -1.964-0.893t-1.964-1.071t-1.429-1.071t0-0.893q-7.5,6.071 -12.857,7.857q-1.786,0.357 -3.929,1.964t-3.75,2.5t-3.571,0.536t-4.107-2.5 q-1.786-1.786 -2.143-5.357t-0.714-4.643q-2.5,1.786 0,6.25t 0.714,6.607q-1.071,2.143 -3.75,1.607t-4.286-1.607t-4.107-3.036t-3.214-2.321t-3.036-1.964t-3.036-2.679q-1.071-1.429 -2.143-4.286t-1.786-3.929q-0.714,1.429 -4.107,2.321t-3.393,1.964q 0.714-3.571 1.429-12.5t 1.786-13.571q 2.5-11.071 -4.286-17.143q-9.643-8.929 -10.357-14.286q-1.429-7.857 4.286-9.286q0-2.5 -2.857-7.321t-2.5-7.679q0-2.143 0.714-5.714z" horiz-adv-x="548.571" data-tags="globe, earth, universal, language, localization" />
<glyph unicode="&#xe005;" d="M 396.064,145.664C 316.352,174.4, 290.88,198.656, 290.88,250.592c0,31.168, 24.352,20.992, 35.040,78.080c 4.448,23.68, 25.952,0.384, 30.016,54.432
		c0,21.536-11.712,26.912-11.712,26.912s 5.984,31.904, 8.288,56.416C 355.392,497.024, 334.656,576, 224,576S 92.608,497.024, 95.488,466.432
		c 2.336-24.544, 8.32-56.416, 8.32-56.416S 92.064,404.672, 92.064,383.104c 4.128-54.048, 25.632-30.752, 30.016-54.432
		c 10.72-57.088, 35.072-46.912, 35.072-78.080c0-51.936-25.504-76.192-105.216-104.928c-9.6-3.424-32.48-8.8-51.936-17.216L0,0 l 512,0 
		c0,0,0,47.328,0,67.36S 476.064,116.832, 396.064,145.664z M 544,320L 544,416 l-64,0 l0-96 l-96,0 l0-64 l 96,0 l0-96 l 64,0 l0,96 l 96,0 L 640,320 L 544,320 z" data-tags="user-add" />
<glyph unicode="&#xe00a;" d="M 505.6,352L 448,352 L 448,428.8 C 448,521.504, 405.28,576, 320,576C 234.688,576, 192,521.504, 192,428.8L 192,416 l 64,0 L 256,441.6 C 256,487.84, 281.504,512, 320,512c 38.464,0, 64-24.16, 64-70.4L 384,352 L 128,352 
		C 110.304,352, 96,331.296, 96,313.6L 96,64 c0-17.6, 13.728-36.416, 30.464-41.824l 38.272-12.384C 181.504,4.416, 209.6,0, 227.2,0l 185.6,0 
		c 17.632,0, 45.728,4.416, 62.464,9.824l 38.272,12.384C 530.272,27.584, 544,46.4, 544,64L 544,313.6 C 544,331.296, 523.296,352, 505.6,352z" data-tags="lock-open, unlocked" />
<glyph unicode="&#xe004;" d="M 576,544L 64,544 C 28.8,544,0,515.2,0,480l0-384 c0-35.2, 28.8-64, 64-64l 512,0 c 35.232,0, 64,28.8, 64,64L 640,480 C 640,515.2, 611.232,544, 576,544z M 576,96L 64,96 L 64,480 l 512,0 L 576,96 z M 288,220.8L 128,220.8 
		L 128,163.2 l 160,0 L 288,220.8 z M 288,316.8L 128,316.8 l0-57.6 l 160,0 L 288,316.8 z M 288,412.8L 128,412.8 l0-57.6 l 160,0 L 288,412.8 z M 508.8,208c0,0-54.4,14.208-54.4,42.176c0,26.624, 35.232,37.824, 35.232,92.224
		c0,44.16-13.44,70.4-57.632,70.4s-57.6-26.208-57.6-70.4c0-54.4, 35.2-65.6, 35.2-92.224c0-27.968-54.368-42.176-54.368-42.176C 352,208, 352,163.2, 352,163.2
		l 160,0 C 512,163.2, 512,208, 508.8,208z" data-tags="vcard, card" />
<glyph unicode="&#xe006;" d="M 51.008,438.848c 15.616-8.416, 231.968-124.608, 240.032-128.928C 299.072,305.6, 309.504,303.52, 320,303.52c 10.528,0, 20.96,2.080, 28.992,6.432
		c 8.064,4.32, 224.384,120.512, 240,128.928C 604.64,447.264, 619.424,473.6, 590.72,473.6L 49.312,473.6 C 20.608,473.6, 35.36,447.264, 51.008,438.848z M 595.616,374.848
		c-17.76-9.28-235.744-123.232-246.624-128.928S 330.528,239.488, 320,239.488c-10.496,0-18.080,0.736-28.96,6.432S 62.144,365.6, 44.416,374.848
		C 31.904,381.376, 32,373.728, 32,367.84c0-5.888,0-234.72,0-234.72C 32,119.68, 49.888,102.4, 63.744,102.4l 512.544,0 c 13.888,0, 31.712,17.28, 31.712,30.688
		c0,0,0,228.832,0,234.72C 608,373.728, 608.128,381.376, 595.616,374.848z" data-tags="mail, email, message, letter, envelope, contact" />
<glyph unicode="&#xe00c;" d="M 617.312,595.008c-3.456,10.080-14.368,15.392-24.352,11.904s-15.232-14.528-11.744-24.64c 29.44-85.44-28.992-149.248-73.504-183.392
		l-18.016,26.048c-6.016,8.704-19.584,15.968-30.080,16.128l-100.96-0.48c-10.496,0.16-26.112-4.704-34.752-10.784l-297.472-210.816
		c-14.4-10.208-17.952-30.304-7.84-44.896l 135.232-195.424c 10.080-14.592, 26.304-12.832, 40.704-2.656l 297.472,210.848
		c 8.64,6.080, 18.464,19.328, 21.952,29.376l 31.616,100.672c 3.424,10.048, 1.344,25.408-4.672,34.112l-11.008,15.872
		C 589.696,413.12, 651.776,494.944, 617.312,595.008z M 478.912,295.616c-23.072-16.352-54.848-10.656-71.008,12.672
		c-16.128,23.328-10.528,55.488, 12.544,71.84c 18.304,12.992, 42.080,12.032, 59.2-0.576c-8.64-5.248-14.528-8.256-15.648-8.8
		c-9.536-4.544-13.632-16.064-9.12-25.728c 3.264-7.008, 10.112-11.136, 17.312-11.136c 2.72,0, 5.504,0.608, 8.128,1.856
		c 6.112,2.912, 12.736,6.464, 19.616,10.592C 503.008,327.36, 495.52,307.392, 478.912,295.616z" data-tags="tag, price" />
<glyph unicode="&#xe007;" d="M 168.736,386.752c 6.432,0, 12.64-0.96, 18.464-2.784C 209.28,408.704, 233.76,431.232, 260.256,451.2C 259.168,455.84, 258.496,460.704, 258.496,465.728
	c0,6.976, 1.152,13.632, 3.264,19.84C 232.096,506.88, 199.776,524.736, 165.472,538.56C 133.248,518.656, 105.184,492.704, 82.816,462.304
	c 16.608-29.408, 36.384-56.832, 58.816-81.824C 149.856,384.48, 159.040,386.752, 168.736,386.752z M 106.112,324.128c0,8.768, 1.824,17.152, 5.088,24.736
	C 91.136,370.944, 72.896,394.752, 56.928,420.16C 36.928,380.416, 25.6,335.52, 25.6,288c0-55.072, 15.168-106.56, 41.472-150.624
	c 9.376,52.96, 27.232,103.040, 51.84,148.928C 110.912,296.8, 106.112,309.888, 106.112,324.128z M 321.12,528.384c 16.576,0, 31.552-6.464, 42.752-16.928
	c 32.672,14.048, 67.104,24.832, 102.912,31.712C 423.552,568.064, 373.472,582.4, 320,582.4c-36.448,0-71.328-6.688-103.52-18.816
	c 25.568-12.64, 49.952-27.328, 72.832-43.968C 298.656,525.152, 309.504,528.384, 321.12,528.384z M 414.816,233.344c 3.904,8.128, 9.44,15.296, 16.288,20.992
	c-18.496,56.896-47.776,108.928-85.504,153.728c-7.52-3.2-15.776-4.96-24.48-4.96c-13.568,0-26.112,4.384-36.384,11.712
	c-22.72-17.248-43.712-36.608-62.816-57.728C 227.872,347.52, 231.36,336.256, 231.36,324.128c0-6.56-0.992-12.832-2.848-18.784
	C 283.456,268.64, 346.688,243.456, 414.816,233.344z M 496.064,148.768c 0.832-11.84, 1.312-23.808, 1.312-35.872c0-21.28-1.376-42.176-3.936-62.752
	c 49.952,36.48, 87.936,88.224, 107.136,148.448c-22.72-5.504-46.016-9.44-69.792-11.712C 525.184,169.76, 512.448,155.872, 496.064,148.768z
	 M 400.128,191.264c-72.672,12.032-140.064,39.744-198.688,79.488c-9.536-5.856-20.672-9.28-32.672-9.28c-4.416,0-8.672,0.48-12.832,1.344
	c-28.064-53.248-46.016-112.64-51.2-175.552c 28.032-30.048, 62.24-54.24, 100.672-70.496C 253.088,90.080, 319.776,150.784, 400.128,191.264z M 517.632,506.176
	c-47.168-4.544-92.224-16.384-134.176-34.176c 0.256-2.048, 0.352-4.16, 0.352-6.272c0-9.888-2.336-19.2-6.432-27.488
	c 41.92-49.216, 74.464-106.56, 95.040-169.312c 25.44-0.48, 47.232-16.064, 56.608-38.24c 28.352,2.88, 55.936,8.32, 82.528,16.128
	C 613.376,260.256, 614.4,273.984, 614.4,288C 614.4,374.528, 577.056,452.352, 517.632,506.176z M 431.648,157.792c-75.040-35.136-137.728-89.248-183.168-155.392
	C 271.36-3.328, 295.328-6.4, 320-6.4c 44.448,0, 86.496,9.888, 124.256,27.488c 6.048,29.664, 9.28,60.352, 9.28,91.808
	c0,11.328-0.544,22.592-1.376,33.76C 444.608,149.056, 437.664,152.864, 431.648,157.792z" data-tags="network, globe, sphere" />
<glyph unicode="&#xe0b4;" d="M 320,548C 176.4,548, 60,431.6, 60,288s 116.4-260, 260-260s 260,116.4, 260,260S 463.6,548, 320,548z M 320,68C 198.5,68, 100,166.5, 100,288S 198.5,508, 320,508
			s 220-98.5, 220-220S 441.5,68, 320,68z M 296.56,353.82c-11.78-9.16-22.68-15.4-32.7-18.68l0-34.84 c 19.060,6.28, 35.62,15.98, 49.68,29.1
			l0-142.22 l 40.94,0 l0,200 l-33.72,0 C 316.4,374.94, 308.32,363, 296.56,353.82z" data-tags="number, one" />
<glyph unicode="&#xe0b5;" d="M 320,548C 176.4,548, 60,431.6, 60,288s 116.4-260, 260-260s 260,116.4, 260,260S 463.6,548, 320,548z M 320,68C 198.5,68, 100,166.5, 100,288S 198.5,508, 320,508
			s 220-98.5, 220-220S 441.5,68, 320,68z M 351.28,252.46c 12.14,11.12, 20.54,19.64, 25.2,25.56c 7.020,8.94, 12.14,17.5, 15.4,25.64
			c 3.22,8.16, 4.84,16.76, 4.84,25.78c0,15.86-5.66,29.14-16.96,39.8c-11.3,10.66-26.84,16-46.62,16
			c-18.040,0-33.080-4.6-45.12-13.8s-19.2-24.36-21.46-45.5l 38.28-3.82c 0.72,11.2, 3.46,19.2, 8.2,24.020
			c 4.72,4.82, 11.1,7.22, 19.12,7.22c 8.1,0, 14.46-2.3, 19.040-6.9c 4.6-4.6, 6.92-11.2, 6.92-19.76
			c0-7.74-2.66-15.58-7.92-23.52c-3.9-5.74-14.54-16.68-31.84-32.8c-21.52-19.96-35.92-35.98-43.2-48.060
			c-7.3-12.080-11.68-24.84-13.12-38.34l 134.68,0 l0,35.62 l-76.38,0 c 2.020,3.46, 4.62,7.020, 7.88,10.68
			C 331.42,233.94, 339.12,241.32, 351.28,252.46z" data-tags="number, two" />
<glyph unicode="&#xe0b6;" d="M 320,548C 176.4,548, 60,431.6, 60,288s 116.4-260, 260-260s 260,116.4, 260,260S 463.6,548, 320,548z M 320,68C 198.5,68, 100,166.5, 100,288S 198.5,508, 320,508
			s 220-98.5, 220-220S 441.5,68, 320,68z M 344.96,303.62c 19.26,10.5, 28.86,24.56, 28.86,42.16c0,12.42-4.68,23.54-14.1,33.4
			c-11.42,12.040-26.6,18.060-45.5,18.060c-11.060,0-21.040-2.080-29.94-6.22s-15.84-9.86-20.84-17.1
			c-4.96-7.24-8.7-16.94-11.18-29.080l 35.46-6.040c 1.020,8.78, 3.86,15.44, 8.52,20.020c 4.68,4.58, 10.32,6.86, 16.9,6.86
			c 6.68,0, 12.060-2.020, 16.080-6.020c 4.020-4.020, 6.040-9.42, 6.040-16.18c0-7.96-2.76-14.32-8.26-19.14
			c-5.46-4.8-13.46-7.060-23.9-6.78l-4.26-31.3c 6.88,1.92, 12.76,2.88, 17.7,2.88c 7.48,0, 13.82-2.82, 19.040-8.46
			c 5.22-5.64, 7.82-13.3, 7.82-22.94c0-10.18-2.72-18.28-8.14-24.28c-5.44-6-12.14-9-20.080-9
			c-7.4,0-13.72,2.5-18.9,7.5c-5.22,5-8.4,12.24-9.58,21.72l-37.18-4.52c 1.92-16.86, 8.84-30.5, 20.8-40.94
			c 11.96-10.44, 27-15.64, 45.16-15.64c 19.14,0, 35.16,6.18, 48.020,18.58c 12.88,12.38, 19.3,27.36, 19.3,44.94
			c0,12.1-3.44,22.44-10.3,31C 365.58,295.64, 356.42,301.16, 344.96,303.62z" data-tags="number, three" />
<glyph unicode="&#xe0b7;" d="M 320,548C 176.4,548, 60,431.6, 60,288s 116.4-260, 260-260s 260,116.4, 260,260S 463.6,548, 320,548z M 320,68C 198.5,68, 100,166.5, 100,288S 198.5,508, 320,508
			s 220-98.5, 220-220S 441.5,68, 320,68z M 363.52,381.26l-32.26,0 l-87.080-127.48l0-33.48 l 82.18,0 L 326.36,180 l 37.16,0 l0,40.32 l 24.86,0 l0,33.6 l-24.86,0 L 363.52,381.26 z
			 M 326.34,253.9l-46.18,0 l 46.18,68.68L 326.34,253.9 z" data-tags="number, four" />
<glyph unicode="&#xe0b8;" d="M 320,548C 176.4,548, 60,431.6, 60,288s 116.4-260, 260-260s 260,116.4, 260,260S 463.6,548, 320,548z M 320,68C 198.5,68, 100,166.5, 100,288S 198.5,508, 320,508
			s 220-98.5, 220-220S 441.5,68, 320,68z M 325.18,330.22c-8.94,0-17.72-2.14-26.26-6.42l 6.1,34.080l 72.44,0 l0,35.94 l-101.56,0 l-19.7-104.38
			l 31.14-4.54c 8.76,9.8, 18.64,14.68, 29.68,14.68c 8.84,0, 16.020-3.080, 21.54-9.24s 8.28-15.4, 8.28-27.72
			c0-13.14-2.8-22.96-8.34-29.5c-5.56-6.54-12.36-9.78-20.4-9.78c-7.020,0-13.22,2.52-18.6,7.58
			c-5.4,5.040-8.62,11.9-9.72,20.54l-38.26-3.96c 2.28-16.78, 9.24-30.12, 20.92-40.060c 11.68-9.92, 26.76-14.88, 45.28-14.88
			c 23.16,0, 41.24,8.82, 54.3,26.54c 9.58,12.94, 14.34,27.68, 14.34,44.2c0,19.78-5.92,35.88-17.78,48.3
			C 356.68,324.020, 342.22,330.22, 325.18,330.22z" data-tags="number, five" />
<glyph unicode="&#xe0b9;" d="M 320,548C 176.4,548, 60,431.6, 60,288s 116.4-260, 260-260s 260,116.4, 260,260S 463.6,548, 320,548z M 320,68C 198.5,68, 100,166.5, 100,288S 198.5,508, 320,508
			s 220-98.5, 220-220S 441.5,68, 320,68z M 330.4,314.3c-14.22,0-26.1-5.64-35.68-16.96c 1.46,23.020, 4.98,38.16, 10.58,45.42
			s 12.44,10.9, 20.56,10.9c 6.1,0, 11.060-1.82, 14.88-5.46s 6.2-9.26, 7.1-16.9l 37.18,4.1
			c-2.74,16.2-9.1,28.54-19.080,37.060c-9.98,8.5-22.58,12.76-37.8,12.76c-21.7,0-39.34-8.1-52.92-24.34
			c-13.58-16.22-20.36-42.7-20.36-79.44c0-35.82, 6.5-61.6, 19.56-77.32c 13.020-15.72, 29.66-23.6, 49.92-23.6
			c 18.88,0, 34.34,6.22, 46.36,18.62c 12.060,12.42, 18.060,28.9, 18.060,49.44c0,19.36-5.74,35.14-17.16,47.36
			C 360.18,308.2, 346.44,314.3, 330.4,314.3z M 344.020,220.8c-4.72-5.56-10.66-8.34-17.76-8.34c-7.36,0-13.92,3.4-19.66,10.2
			s-8.6,16.46-8.6,28.98c0,11.32, 2.54,19.9, 7.64,25.7s 11.34,8.72, 18.72,8.72c 7.64,0, 14.020-3.040, 19.12-9.12
			s 7.66-15.64, 7.66-28.72C 351.14,235.5, 348.76,226.36, 344.020,220.8z" data-tags="number, six" />
<glyph unicode="&#xe0ba;" d="M 320,548C 176.4,548, 60,431.6, 60,288s 116.4-260, 260-260s 260,116.4, 260,260S 463.6,548, 320,548z M 320,68C 198.5,68, 100,166.5, 100,288S 198.5,508, 320,508
			s 220-98.5, 220-220S 441.5,68, 320,68z M 254.88,342.18l 87.42,0 c-18.040-22.72-32.46-48.5-43.24-77.34
			c-10.8-28.82-16.52-57.12-17.14-84.86l 37.040,0 c-0.1,17.7, 2.8,37.78, 8.68,60.24c 5.86,22.48, 14.42,43.7, 25.6,63.68
			c 11.2,19.96, 22.2,35.28, 33.060,45.94l0,27.96 l-131.4,0 L 254.9,342.18 z" data-tags="number, seven" />
<glyph unicode="&#xe0bb;" d="M 320,548C 176.4,548, 60,431.6, 60,288s 116.4-260, 260-260s 260,116.4, 260,260S 463.6,548, 320,548z M 320,68C 198.5,68, 100,166.5, 100,288S 198.5,508, 320,508
			s 220-98.5, 220-220S 441.5,68, 320,68z M 344.12,300.14c 8.74,3.82, 15.52,9.36, 20.36,16.62s 7.24,15.52, 7.24,24.82
			c0,14.96-5.28,27.3-15.78,37.060c-10.54,9.74-25.34,14.62-44.38,14.62c-19.24,0-34.060-4.88-44.5-14.62
			c-10.44-9.76-15.66-22.1-15.66-37.060c0-8.76, 2.26-16.8, 6.76-24.14c 4.54-7.34, 11.74-13.1, 21.68-17.3
			c-11.56-4.94-20.020-11.94-25.4-21.020c-5.36-9.080-8.040-19.060-8.040-29.92c0-19.72, 7.14-35.26, 21.44-46.56
			c 12.1-9.58, 27.28-14.38, 45.5-14.38c 19.58,0, 35.28,5.8, 47.080,17.4c 11.8,11.58, 17.7,26.64, 17.7,45.18
			c0,11.24-2.9,21.14-8.68,29.72S 355.24,295.66, 344.12,300.14z M 294.38,356.22c 4.38,4.38, 10.24,6.56, 17.62,6.56
			c 7.1,0, 12.82-2.16, 17.14-6.5c 4.32-4.32, 6.48-10.1, 6.48-17.3c0-7.66-2.18-13.66-6.56-17.98
			c-4.38-4.34-10.2-6.5-17.48-6.5c-7.2,0-12.94,2.14-17.28,6.42c-4.32,4.28-6.48,10.26-6.48,17.92
			C 287.82,346.040, 290,351.84, 294.38,356.22z M 332.36,227.74c-5.22-5.7-11.78-8.56-19.7-8.56
			c-8.1,0-14.88,2.94-20.32,8.88c-5.42,5.94-8.12,14.22-8.12,24.8c0,7.58, 2.3,14.62, 6.92,21.12
			c 4.6,6.48, 11.6,9.72, 20.98,9.72c 8.12,0, 14.82-2.86, 20.12-8.56c 5.28-5.72, 7.92-13.28, 7.92-22.66
			C 340.16,241.72, 337.56,233.46, 332.36,227.74z" data-tags="number, eight" />
<glyph unicode="&#xe0bc;" d="M 320,548C 176.4,548, 60,431.6, 60,288s 116.4-260, 260-260s 260,116.4, 260,260S 463.6,548, 320,548z M 320,68C 198.5,68, 100,166.5, 100,288S 198.5,508, 320,508
			s 220-98.5, 220-220S 441.5,68, 320,68z M 312.18,381.26c-18.7,0-34.080-6.22-46.18-18.66c-12.080-12.44-18.1-28.84-18.1-49.16
			c0-19.52, 5.72-35.36, 17.14-47.52c 11.44-12.16, 25.060-18.26, 40.82-18.26c 14.5,0, 26.56,5.62, 36.24,16.84
			c-1.54-22.98-5.1-38.12-10.64-45.42c-5.56-7.28-12.28-10.94-20.22-10.94c-6.28,0-11.32,1.84-15.16,5.48
			s-6.2,9.28-7.1,16.86l-37.16-4.1c 2.74-16.66, 8.92-29.18, 18.58-37.54c 9.66-8.38, 22.34-12.58, 38-12.58
			c 21.8,0, 39.46,8.12, 53.040,24.38c 13.58,16.24, 20.38,42.7, 20.38,79.36c0,36.040-6.52,61.92-19.56,77.66
			C 349.22,373.38, 332.52,381.26, 312.18,381.26z M 331.1,284.54c-5.040-5.84-11.24-8.76-18.62-8.76
			c-7.64,0-14.020,3.020-19.12,9.1s-7.64,15.58-7.64,28.52c0,12.76, 2.34,21.96, 7.020,27.56c 4.7,5.6, 10.58,8.4, 17.7,8.4
			c 7.46,0, 14.020-3.42, 19.72-10.26c 5.68-6.84, 8.54-16.46, 8.54-28.86C 338.7,298.94, 336.18,290.38, 331.1,284.54z" data-tags="number, nine" />
<glyph unicode="&#xe0bd;" d="M 320,548C 176.4,548, 60,431.6, 60,288s 116.4-260, 260-260s 260,116.4, 260,260S 463.6,548, 320,548z M 320,68C 198.5,68, 100,166.5, 100,288S 198.5,508, 320,508
			s 220-98.5, 220-220S 441.5,68, 320,68z M 319.88,393.26c-19.46,0-34.58-6.84-45.44-20.52c-13.14-16.6-19.7-43.76-19.7-81.48
			c0-38.46, 5.98-65.2, 17.92-80.2s 27.7-22.48, 47.22-22.48c 19.42,0, 34.58,6.84, 45.42,20.5c 13.14,16.58, 19.72,43.84, 19.72,81.76
			c0,38-6.52,65.22-19.58,81.64C 354.5,386.32, 339.3,393.26, 319.88,393.26z M 340.9,240.82c-2.040-7.66-4.86-12.96-8.52-15.94
			c-3.68-2.96-7.86-4.44-12.5-4.44c-4.68,0-8.82,1.46-12.44,4.38s-6.62,8.76-9,17.56s-3.56,24.96-3.56,48.46
			s 1.32,40.24, 3.98,50.16c 2,7.66, 4.84,12.96, 8.52,15.92c 3.66,2.96, 7.82,4.44, 12.5,4.44
			c 4.64,0, 8.78-1.48, 12.42-4.44c 3.62-2.96, 6.6-8.84, 8.98-17.64s 3.6-24.96, 3.6-48.46S 343.56,250.66, 340.9,240.82z" data-tags="number, zero" />
<glyph unicode="&#xe0be;" d="M 320,548C 176.4,548, 60,431.6, 60,288s 116.4-260, 260-260s 260,116.4, 260,260S 463.6,548, 320,548z
			 M 355.14,157.28l-49.38,0 l0,186.1 c-18.020-16.82-39.28-29.26-63.76-37.34l0,44.68 c 12.88,4.22, 26.88,12.24, 41.98,24.040
			c 15.12,11.8, 25.46,25.56, 31.1,41.28l 40.060,0 L 355.14,157.28 z" data-tags="number, one" />
<glyph unicode="&#xe0bf;" d="M 320,548C 176.4,548, 60,431.6, 60,288s 116.4-260, 260-260s 260,116.4, 260,260S 463.6,548, 320,548z
			 M 406.84,199.48l0-45.94 l-173.12,0 c 1.86,17.34, 7.48,33.76, 16.86,49.3c 9.36,15.52, 27.86,36.14, 55.48,61.8
			c 22.22,20.74, 35.86,34.8, 40.9,42.18c 6.8,10.2, 10.2,20.28, 10.2,30.24c0,11.020-2.94,19.5-8.82,25.42s-14,8.88-24.38,8.88
			c-10.24,0-18.4-3.12-24.46-9.34s-9.56-16.54-10.46-30.98l-49.38,4.94c 2.92,27.18, 12.1,46.7, 27.56,58.56
			c 15.44,11.84, 34.78,17.76, 57.96,17.76c 25.4,0, 45.36-6.86, 59.88-20.56c 14.52-13.72, 21.78-30.76, 21.78-51.14
			c0-11.6-2.080-22.64-6.24-33.12s-10.74-21.48-19.76-32.94c-5.98-7.6-16.78-18.58-32.42-32.88
			c-15.62-14.28-25.52-23.76-29.68-28.44c-4.16-4.7-7.52-9.26-10.1-13.72L 406.84,199.5 z" data-tags="number, two" />
<glyph unicode="&#xe0c0;" d="M 320,548C 176.4,548, 60,431.6, 60,288s 116.4-260, 260-260s 260,116.4, 260,260S 463.6,548, 320,548z
			 M 379.9,180.86c-16.52-15.94-37.080-23.88-61.72-23.88c-23.32,0-42.66,6.7-58,20.1c-15.38,13.4-24.28,30.9-26.74,52.54
			l 47.82,5.78c 1.52-12.14, 5.62-21.42, 12.32-27.86c 6.66-6.42, 14.76-9.64, 24.26-9.64c 10.2,0, 18.78,3.88, 25.78,11.64
			c 6.96,7.74, 10.44,18.18, 10.44,31.32c0,12.42-3.34,22.3-10.020,29.58c-6.7,7.28-14.84,10.9-24.46,10.9
			c-6.34,0-13.9-1.24-22.72-3.68l 5.44,39.94c 13.36-0.36, 23.56,2.54, 30.58,8.68c 7.020,6.14, 10.52,14.3, 10.52,24.48
			c0,8.66-2.56,15.54-7.7,20.7c-5.16,5.14-11.98,7.72-20.5,7.72c-8.42,0-15.58-2.92-21.54-8.76
			c-5.96-5.86-9.58-14.4-10.88-25.62l-45.62,7.72c 3.16,15.64, 7.94,28.14, 14.34,37.5s 15.3,16.7, 26.72,22.060
			s 24.24,8.020, 38.42,8.020c 24.26,0, 43.72-7.74, 58.36-23.22c 12.080-12.66, 18.1-26.96, 18.1-42.9c0-22.62-12.38-40.68-37.16-54.16
			c 14.78-3.16, 26.6-10.26, 35.44-21.26c 8.86-11.020, 13.28-24.3, 13.28-39.88C 404.68,216.040, 396.42,196.78, 379.9,180.86z" data-tags="number, three" />
<glyph unicode="&#xe0c1;" d="M 320,548C 176.4,548, 60,431.6, 60,288s 116.4-260, 260-260s 260,116.4, 260,260S 463.6,548, 320,548z M 320,68C 198.5,68, 100,166.5, 100,288S 198.5,508, 320,508
			s 220-98.5, 220-220S 441.5,68, 320,68z M 291.84,364.52c 8.38,4.42, 12.56,9.94, 12.56,16.56c0,4.18-1.42,7.66-4.28,10.42
			c-2.88,2.76-6.5,4.14-10.9,4.14c-11.020,0-26.2-6.4-45.56-19.18c-22.9-15-41.1-33.24-54.62-54.74
			c-13.52-21.5-20.3-42.74-20.3-63.7c0-9.92, 1.88-19.78, 5.62-29.6c 3.74-9.8, 8.8-18.12, 15.18-24.98
			c 13.42-14.78, 29.48-22.16, 48.18-22.16c 19.58,0, 35.54,6.74, 47.86,20.2c 5.060,5.5, 9.060,12.080, 12.060,19.68
			c 2.96,7.62, 4.46,15.16, 4.46,22.66c0,15.88-4.4,29.44-13.18,40.7s-20.36,17.86-34.64,19.84l-5.28,0.32l-3.96,0.68
			c-6.58,0.88-9.9,3.42-9.9,7.6c0,4.42, 4.3,11.36, 12.9,20.84C 257,343.46, 271.6,353.72, 291.84,364.52z M 449.8,364.52
			c 8.4,4.42, 12.58,9.94, 12.58,16.56c0,4.18-1.42,7.66-4.3,10.42c-2.86,2.76-6.5,4.14-10.92,4.14
			c-11.020,0-26.24-6.4-45.64-19.18c-22.92-15-41.22-33.24-54.88-54.74s-20.5-42.74-20.5-63.7c0-9.92, 1.88-19.78, 5.62-29.6
			c 3.76-9.8, 8.8-18.12, 15.2-24.98c 13.46-14.78, 29.64-22.16, 48.6-22.16c 19.42,0, 35.4,6.74, 47.96,20.2
			c 5.060,5.5, 9.1,12.020, 12.080,19.52c 2.96,7.52, 4.46,15.12, 4.46,22.84c0,15.88-4.48,29.38-13.4,40.52
			c-8.94,11.14-20.58,17.8-34.94,20l-4.98,0.32l-4.3,0.68c-6.6,0.88-9.92,3.42-9.92,7.6c0,4.42, 4.42,11.36, 13.24,20.84
			C 415.020,343.92, 429.7,354.16, 449.8,364.52z" data-tags="quote, rdquo" />
<glyph unicode="&#xe0c2;" d="M 320,548C 176.4,548, 60,431.6, 60,288s 116.4-260, 260-260s 260,116.4, 260,260S 463.6,548, 320,548z M 320,68C 198.5,68, 100,166.5, 100,288S 198.5,508, 320,508
			s 220-98.5, 220-220S 441.5,68, 320,68z M 293.040,372.58c-13.48,14.78-29.66,22.16-48.62,22.16c-19.4,0-35.4-6.72-47.94-20.18
			c-5.060-5.52-9.1-12.020-12.080-19.52c-2.96-7.5-4.46-15.12-4.46-22.82c0-15.88, 4.48-29.4, 13.4-40.54
			c 8.94-11.14, 20.58-17.8, 34.94-20l 4.98-0.32l 4.3-0.68c 6.62-0.88, 9.94-3.42, 9.94-7.6c0-4.42-4.42-11.36-13.26-20.84
			c-9.28-10.14-23.96-20.42-44.060-30.76c-8.4-4.42-12.58-9.92-12.58-16.54c0-4.2, 1.42-7.68, 4.3-10.42
			c 2.86-2.76, 6.5-4.12, 10.92-4.12c 11.020,0, 26.24,6.38, 45.64,19.18c 22.92,15, 41.24,33.24, 54.9,54.76
			c 13.68,21.48, 20.5,42.72, 20.5,63.68c0,9.92-1.88,19.78-5.62,29.6C 304.5,357.42, 299.42,365.74, 293.040,372.58z M 450.46,372.58
			c-13.4,14.78-29.46,22.16-48.16,22.16c-19.58,0-35.54-6.72-47.86-20.18c-5.080-5.52-9.080-12.080-12.060-19.68
			c-2.98-7.62-4.46-15.16-4.46-22.66c0-15.88, 4.4-29.46, 13.18-40.7s 20.36-17.86, 34.64-19.84l 5.28-0.32l 3.94-0.68
			c 6.6-0.88, 9.9-3.42, 9.9-7.6c0-4.42-4.3-11.36-12.88-20.84c-9.020-9.7-23.66-19.96-43.88-30.76
			c-8.38-4.42-12.56-9.92-12.56-16.54c0-4.2, 1.44-7.68, 4.3-10.42c 2.88-2.76, 6.5-4.12, 10.9-4.12
			c 11,0, 26.2,6.38, 45.54,19.18c 22.9,15, 41.12,33.24, 54.64,54.76c 13.52,21.48, 20.3,42.72, 20.3,63.68
			c0,9.92-1.86,19.78-5.6,29.6C 461.92,357.42, 456.86,365.74, 450.46,372.58z" data-tags="quote, rdquo" />
<glyph unicode="&#xe0c3;" d="M 334.76,378.44c-4.66,3.8-10,5.72-16.020,5.72s-11.38-1.92-16.1-5.72
			c-4.72-3.82-8.38-10.64-10.98-20.48c-3.42-12.78-5.12-34.28-5.12-64.52s 1.52-51.020, 4.58-62.32s 6.94-18.82, 11.58-22.6
			c 4.66-3.76, 10-5.6, 16.020-5.6s 11.36,1.9, 16.1,5.7s 8.36,10.64, 10.98,20.48c 3.4,12.66, 5.12,34.1, 5.12,64.34
			s-1.52,51.020-4.6,62.32C 343.26,367.060, 339.42,374.62, 334.76,378.44z M 320,548C 176.4,548, 60,431.6, 60,288s 116.4-260, 260-260s 260,116.4, 260,260
			S 463.6,548, 320,548z M 377.16,188.34c-13.96-17.58-33.44-26.36-58.42-26.36c-25.1,0-45.34,9.62-60.7,28.9s-23.040,53.64-23.040,103.080
			c0,48.52, 8.44,83.44, 25.34,104.76c 13.96,17.58, 33.44,26.36, 58.42,26.36s 44.52-8.9, 58.6-26.72
			c 16.76-21.1, 25.16-56.060, 25.16-104.94C 402.5,244.68, 394.040,209.64, 377.16,188.34z" data-tags="number, zero" />
<glyph unicode="&#xe0c4;" d="M 318.6,379.14c-9.18,0-16.8-3.6-22.86-10.78
			c-6.060-7.2-9.080-18.98-9.080-35.36c0-16.6, 3.3-28.78, 9.88-36.56c 6.58-7.8, 14.82-11.68, 24.68-11.68
			c 9.54,0, 17.56,3.76, 24.080,11.24s 9.78,18.48, 9.78,32.98c0,15.9-3.68,28.24-11.020,37.020S 328.22,379.14, 318.6,379.14z M 320,548
			C 176.4,548, 60,431.6, 60,288s 116.4-260, 260-260s 260,116.4, 260,260S 463.6,548, 320,548z M 384.26,187.94c-17.42-20.88-40.12-31.3-68.060-31.3
			c-20.14,0-36.38,5.4-48.78,16.14c-12.4,10.78-20.36,26.86-23.86,48.26l 47.82,5.3c 1.18-9.76, 4.22-17, 9.12-21.7
			c 4.88-4.7, 11.36-7.060, 19.44-7.060c 10.16,0, 18.8,4.68, 25.94,14.1c 7.1,9.42, 11.66,28.88, 13.66,58.46
			c-12.44-14.42-27.98-21.62-46.64-21.62c-20.3,0-37.82,7.82-52.54,23.44c-14.72,15.64-22.080,35.98-22.080,61.040
			c0,26.1, 7.78,47.14, 23.3,63.12c 15.54,15.98, 35.34,23.96, 59.38,23.96c 26.14,0, 47.6-10.12, 64.38-30.34
			c 16.76-20.22, 25.14-53.5, 25.14-99.8C 410.42,242.8, 401.7,208.82, 384.26,187.94z" data-tags="number, nine" />
<glyph unicode="&#xe0c5;" d="M 324.28,274.76c-12.080,0-21.060-4.18-26.98-12.58
			c-5.92-8.38-8.86-17.46-8.86-27.26c0-13.72, 3.48-24.4, 10.44-32.080s 15.66-11.52, 26.1-11.52c 10.2,0, 18.64,3.72, 25.32,11.1
			s 10.020,18.020, 10.020,31.98c0,12.16-3.4,21.94-10.2,29.32C 343.32,271.080, 334.7,274.76, 324.28,274.76z M 323.58,313.84
			c 9.34,0, 16.8,2.8, 22.4,8.36c 5.58,5.58, 8.4,13.3, 8.4,23.16c0,9.28-2.78,16.7-8.32,22.28
			c-5.54,5.58-12.86,8.36-21.96,8.36c-9.46,0-16.98-2.82-22.58-8.44c-5.6-5.64-8.4-13.1-8.4-22.38
			c0-9.86, 2.78-17.56, 8.3-23.080C 306.98,316.6, 314.36,313.84, 323.58,313.84z M 320,548C 176.4,548, 60,431.6, 60,288s 116.4-260, 260-260
			s 260,116.4, 260,260S 463.6,548, 320,548z M 386.3,174.020c-15.18-14.92-35.36-22.38-60.52-22.38c-23.44,0-42.92,6.18-58.52,18.52
			c-18.38,14.58-27.58,34.54-27.58,59.92c0,13.96, 3.46,26.8, 10.4,38.48c 6.92,11.68, 17.84,20.7, 32.74,27.060
			c-12.78,5.38-22.080,12.78-27.86,22.2c-5.82,9.42-8.72,19.72-8.72,30.96c0,19.18, 6.7,35.020, 20.12,47.54
			c 13.42,12.5, 32.5,18.76, 57.22,18.76c 24.5,0, 43.52-6.26, 57.040-18.76c 13.56-12.52, 20.32-28.36, 20.32-47.54
			c0-11.94-3.1-22.54-9.32-31.84c-6.24-9.28-14.96-16.4-26.22-21.3c 14.26-5.76, 25.1-14.16, 32.52-25.2
			c 7.42-11.040, 11.14-23.78, 11.14-38.22C 409.060,208.32, 401.46,188.94, 386.3,174.020z" data-tags="number, eight" />
<glyph unicode="&#xe0c6;" d="M 320,548C 176.4,548, 60,431.6, 60,288s 116.4-260, 260-260s 260,116.4, 260,260S 463.6,548, 320,548z
			 M 407.72,371.44c-13.94-13.74-28.1-33.42-42.5-59.1s-25.38-52.96-32.92-81.88c-7.54-28.9-11.24-54.72-11.14-77.46l-47.5,0 
			c 0.8,35.62, 8.14,72, 22.020,109.040c 13.84,37.060, 32.34,70.2, 55.5,99.4l-112.52,0 l0,45.94 l 169.060,0 L 407.72,371.44 z" data-tags="number, seven" />
<glyph unicode="&#xe0c7;" d="M 321.24,287.26c-9.52,0-17.54-3.72-24.1-11.16
			c-6.58-7.44-9.86-18.42-9.86-32.94c0-16.060, 3.7-28.44, 11.1-37.16c 7.38-8.74, 15.82-13.1, 25.34-13.1
			c 9.14,0, 16.78,3.6, 22.88,10.74s 9.14,18.84, 9.14,35.14c0,16.76-3.28,29.020-9.84,36.82S 331.1,287.26, 321.24,287.26z M 320,548
			C 176.4,548, 60,431.6, 60,288s 116.4-260, 260-260s 260,116.4, 260,260S 463.6,548, 320,548z M 380.94,175.86c-15.46-15.94-35.36-23.88-59.6-23.88
			c-26.040,0-47.44,10.1-64.2,30.32c-16.78,20.22-25.16,53.34-25.16,99.4c0,47.22, 8.76,81.26, 26.24,102.12
			c 17.46,20.86, 40.16,31.28, 68.080,31.28c 19.58,0, 35.8-5.5, 48.64-16.5c 12.86-11.020, 21.040-26.98, 24.56-47.92l-47.82-5.26
			c-1.18,9.8-4.24,17.060-9.16,21.72c-4.94,4.68-11.34,7.020-19.22,7.020c-10.46,0-19.32-4.66-26.54-14.020
			c-7.22-9.34-11.78-28.8-13.66-58.4c 12.3,14.52, 27.62,21.78, 45.94,21.78c 20.64,0, 38.32-7.84, 53.040-23.52
			s 22.080-35.94, 22.080-60.76C 404.16,212.88, 396.42,191.76, 380.94,175.86z" data-tags="number, six" />
<glyph unicode="&#xe0c8;" d="M 320,548C 176.4,548, 60,431.6, 60,288s 116.4-260, 260-260s 260,116.4, 260,260S 463.6,548, 320,548z
			 M 390.92,194.4c-16.78-22.74-40.060-34.1-69.84-34.1c-23.8,0-43.2,6.38-58.22,19.18c-15,12.82-23.98,30.040-26.92,51.64
			l 49.38,5.12c 1.4-11.18, 5.56-20, 12.46-26.48c 6.9-6.52, 14.84-9.76, 23.84-9.76c 10.3,0, 18.98,4.18, 26.14,12.54
			c 7.1,8.36, 10.68,20.98, 10.68,37.86c0,15.8-3.56,27.66-10.64,35.56c-7.1,7.9-16.36,11.86-27.76,11.86
			c-14.2,0-26.96-6.24-38.22-18.76l-39.94,5.78l 25.32,134.22l 130.62,0 l0-46.24 l-93.16,0 l-7.94-43.84c 11.060,5.46, 22.34,8.22, 33.86,8.22
			c 21.98,0, 40.6-7.98, 55.9-23.92c 15.28-15.94, 22.92-36.64, 22.92-62.060C 409.38,229.98, 403.22,211.040, 390.92,194.4z" data-tags="number, five" />
<glyph unicode="&#xe0c9;" d="M 327.18,256.34l0,88.1 l-59.42-88.1L 327.18,256.34 z M 320,548C 176.4,548, 60,431.6, 60,288
			s 116.4-260, 260-260s 260,116.4, 260,260S 463.6,548, 320,548z M 406.88,213.22L 375,213.22 l0-51.9 l-47.82,0 l0,51.9 l-105.62,0 l0,42.94 l 111.96,163.92l 41.48,0 l0-163.74 
			l 31.88,0 L 406.88,213.22 z" data-tags="number, four" />
<glyph unicode="&#xe0ca;" d="M 578.16,216.48l-186.22-186.22c-15.82-15.82-41.48-15.82-57.3,0L 106.36,258.56
	l-56.4,174.58l 41.2,41.2l 78.94-78.94c-2.12-15.2, 2.48-31.14, 14.16-42.82c 19.78-19.78, 51.84-19.78, 71.62,0
	c 19.76,19.78, 19.76,51.84,0,71.62c-11.68,11.68-27.62,16.26-42.82,14.16L 134.12,517.3L 174.4,557.6l 175.48-55.5L 578.16,273.8
	C 593.98,257.96, 593.98,232.32, 578.16,216.48z M 227.22,381.22c-3.96-3.96-10.36-3.96-14.32,0L 55.32,538.8
	c-3.96,3.96-3.96,10.38,0,14.32s 10.38,3.96, 14.32,0l 157.56-157.56C 231.18,391.6, 231.18,385.18, 227.22,381.22z" data-tags="tag, price" />
<glyph unicode="&#xe0cb;" d="M 547.9,285.76L 303.4,528.58L 80.58,528.58 L 80.060,306.040l 241.56-246.58
			c 15.88-15.88, 41.42-16.1, 57.060-0.46l 169.68,169.7C 563.98,244.32, 563.78,269.88, 547.9,285.76z M 139.64,427.92c0,22.080, 17.92,40, 40,40
			s 40-17.92, 40-40c0-22.1-17.92-40-40-40S 139.64,405.82, 139.64,427.92z M 357.26,148.96l-155.56,155.56l 14.14,14.14l 155.56-155.56L 357.26,148.96z
			 M 399.68,191.38l-155.56,155.56l 14.16,14.14l 155.54-155.56L 399.68,191.38z M 442.1,233.82l-155.54,155.56l 14.14,14.14l 155.54-155.56
			L 442.1,233.82z" data-tags="tag, price" />
<glyph unicode="&#xe0cc;" d="M 506.6,411.2l-70-121.24c-11.060-19.12-35.5-25.68-54.64-14.62l-17.3,10l 20,34.62
	l0,0c 9.56-5.5, 21.8-2.24, 27.3,7.32l 50,86.6c 5.52,9.58, 2.24,21.8-7.3,27.32l-69.3,40
	c-9.58,5.52-21.8,2.24-27.3-7.32l-50-86.6c-5.54-9.58-2.26-21.8, 7.3-27.32l-20-34.62l-17.3,10
	c-19.14,11.040-25.7,35.5-14.64,54.62l 70,121.24c 11.060,19.14, 35.5,25.68, 54.64,14.64l 103.9-60C 511.1,454.8, 517.66,430.34, 506.6,411.2
	z M 270,201.4c-9.58,5.52-12.86,17.76-7.32,27.32l 80,138.56c 5.52,9.58, 17.76,12.86, 27.32,7.32s 12.86-17.76, 7.3-27.32l-80-138.56
	C 291.8,199.16, 279.58,195.9, 270,201.4z M 255.36,256.020L 255.36,256.020c-9.58,5.52-21.8,2.24-27.32-7.3l-50-86.6
	c-5.52-9.58-2.24-21.8, 7.32-27.32l 69.3-40c 9.56-5.52, 21.8-2.24, 27.3,7.32l 50,86.6c 5.52,9.56, 2.24,21.8-7.3,27.32l0,0
	l 20,34.62l 17.3-10c 19.14-11.040, 25.7-35.48, 14.64-54.62l-70-121.24c-11.060-19.14-35.5-25.68-54.64-14.64l-103.92,60
	c-19.14,11.060-25.7,35.5-14.64,54.64l 70,121.24c 11.060,19.14, 35.52,25.7, 54.66,14.64l 17.3-10L 255.36,256.020z" data-tags="link, anchor, chain" />
<glyph unicode="&#xe0cd;" d="M 282.42,482.9l-150-259.8c-8.28-14.36, 19.64-45.98, 19.64-45.98l 180,311.76
			C 332.060,488.88, 290.7,497.26, 282.42,482.9z M 330,305.32c 14.34-8.28, 32.7-3.36, 40.98,10.98l 80,138.56
			C 459.26,469.22, 454.34,487.56, 440,495.86c-14.34,8.28-32.7,3.36-40.98-10.98l-80-138.56C 310.74,331.96, 315.66,313.6, 330,305.32z
			 M 310,270.68c-14.36,8.28-32.7,3.36-40.98-10.98l-80-138.58C 180.74,106.78, 185.64,88.42, 200,80.14
			c 14.34-8.28, 32.7-3.36, 40.98,10.98l 80,138.58C 329.26,244.060, 324.34,262.4, 310,270.68z M 487.92,398.88l-180-311.76
			c0,0, 41.36-8.38, 49.64,5.98l 150,259.8C 515.86,367.26, 487.92,398.88, 487.92,398.88z" data-tags="link, anchor, chain" />
<glyph unicode="&#xe0ce;" d="M 340,109.24l-60,0 L 280,78 L 220,68l0-20 l 178.76,0 l0,18.76 L 340,78L 340,109.24 z M 540,528L 80,528 
			C 57.9,528, 40,510.1, 40,488l0-280 C 40,185.92, 57.9,168, 80,168l 460,0 c 22.1,0, 40,17.92, 40,40L 580,488 C 580,510.1, 562.1,528, 540,528z M 307.5,198
			c-11.040,0-20,8.96-20,20c0,11.060, 8.96,20, 20,20c 11.060,0, 20-8.94, 20-20C 327.5,206.96, 318.54,198, 307.5,198z M 540,268L 80,268 L 80,488 l 460,0 L 540,268 z" data-tags="monitor, pc, desktop, screen" />
<glyph unicode="&#xe0cf;" d="M 560,528L 80,528 C 57.9,528, 40,510.080, 40,488l0-400 c0-22.080, 17.9-40, 40-40l 480,0 c 22.080,0, 40,17.92, 40,40L 600,488 
			C 600,510.080, 582.080,528, 560,528z M 231.24,498c 11.040,0, 19.98-8.96, 19.98-20s-8.94-20-19.98-20c-11.060,0-20,8.96-20,20S 220.2,498, 231.24,498z
			 M 170,498c 11.040,0, 20-8.96, 20-20s-8.96-20-20-20c-11.060,0-20,8.96-20,20S 158.94,498, 170,498z M 109.98,498c 11.060,0, 20-8.96, 20-20
			s-8.94-20-20-20C 98.94,458, 90,466.96, 90,478S 98.94,498, 109.98,498z M 560,88L 80,88 L 80,427.58 l 480,0 L 560,88 z M 560,467.58L 280,467.58 l0,20 l 280,0 L 560,467.58 z" data-tags="window, desktop, program" />
<glyph unicode="&#xe0d0;" d="M 460.020,528l-300,0 C 137.92,528, 120,510.080, 120,488l0-400 c0-22.080, 17.92-40, 40.020-40l 300,0 
			C 482.1,48, 500,65.92, 500,88L 500,488 C 500,510.080, 482.1,528, 460.020,528z M 310,68c-11.040,0-19.98,8.94-19.98,20s 8.94,20, 19.98,20
			c 11.060,0, 20.020-8.94, 20.020-20S 321.060,68, 310,68z M 459.82,129.24L 159.3,129.24 L 159.3,487.48 l 300.52,0 L 459.82,129.24 z" data-tags="tablet, phone" />
<glyph unicode="&#xe0d1;" d="M 439.98,528l-240,0 C 177.9,528, 160,510.080, 160,488l0-400 c0-22.080, 17.9-40, 39.98-40l 240,0 
			C 462.080,48, 480,65.92, 480,88L 480,488 C 480,510.080, 462.080,528, 439.98,528z M 260,508l 100,0 l 1.24-20L 260,488 L 260,508 z M 319.58,78c-11.040,0-20,8.94-20,20s 8.96,20, 20,20
			c 11.060,0, 20-8.94, 20-20S 330.62,78, 319.58,78z M 439.98,148l-240,0 l 0.42,320l 239.58,0 L 439.98,148 z" data-tags="phone, cellular phone, mobile" />
<glyph unicode="&#xe0d2;" d="M 339.68,287.060l-160,0 l0-18.12 l 160,0 L 339.68,287.060 z M 339.68,227.060l-160,0 l0-19.38 l 160,0 L 339.68,227.060 z
			 M 240.32,527.68l0-60.32 L 179.68,467.36 l0-60.32 L 120.62,407.040 l0-378.76 L 400,28.28 l0,60.62 l 59.060,0 l0,58.76 l 60.32,0 l0,380 L 240.32,527.66 z M 380.62,47.68L 140,47.68 L 140,388.94 l 240.62,0 L 380.62,47.68 z
			 M 439.68,107.060L 400,107.060 l0,300 L 199.060,407.060 L 199.060,448 l 240.62,0 L 439.68,107.060 z M 500,167.060l-40.94,0 L 459.060,467.38 l-199.38,0 L 259.68,508.32 L 500,508.32 L 500,167.060 z M 339.68,107.38l-160,0 L 179.68,88 l 160,0 L 339.68,107.38 z
			 M 339.68,167.68l-160,0 l0-19.38 l 160,0 L 339.68,167.68 z M 339.98,347.68l-160,0 l0-20 l 160,0 L 339.98,347.68 z" data-tags="files, stack, papers" />
<glyph unicode="&#xe0d3;" d="M 510,428c-5.9,0-11.6-0.74-17.14-1.94c-2.46,36.42-32.48,65.28-69.52,65.28
			c-8.3,0-16.16-1.7-23.54-4.36C 376.8,523.54, 336.36,548, 290,548c-70.44,0-127.46-56.14-129.6-126.060C 151.020,425.8, 140.78,428, 130,428
			c-44.18,0-80-35.82-80-80c0-43.040, 34.060-77.88, 76.66-79.64l 32.080,32.080L 191.18,268l 15.16,0 l 32.42,32.44L 271.18,268l 15.16,0 l 32.42,32.44
			L 351.18,268l 15.16,0 l 32.42,32.44L 431.18,268l 15.16,0 l 32.42,32.44l 32.32-32.32C 554.74,268.7, 590,304.18, 590,348
			C 590,392.18, 554.18,428, 510,428z M 480,276.68L 451.32,248l-25.16,0 l-27.42,27.42L 371.32,248l-25.16,0 l-27.42,27.42L 291.32,248l-25.16,0 
			l-27.42,27.42L 211.32,248L 186.18,248 l-27.42,27.42L 131.32,248L 130,248 l 53-220l 272.5,0 L 510,248l-1.32,0 L 480,276.68z M 230,48l-41.66,180l 20,0 l 41.66-180
			L 230,48 z M 270,48l-21.24,180l 20,0 l 21.24-180L 270,48 z M 330,48l-20,0 l0,180 l 20,0 L 330,48 z M 350,48l 21.24,180l 20,0 L 370,48L 350,48 z M 410,48l-20,0 l 41.24,180l 20,0 L 410,48z
			" data-tags="cake, cup cake" />
<glyph unicode="&#xe0d4;" d="M 416.080,393.16c 28.96,72.4-35.78,84.34-35.78,83.48
			c 20.44,51.12-20.44,85.2-57.92,85.2s-35.78-17.060-35.78-17.060s 20.44,4.26, 20.44-11.92c0-16.2-18.76-15.34-37.48-34.080
			c-18.76-18.74-9.8-16.2-11.080-16.2c 38.96,2.56, 61.76-37.7, 104.78-22.98c-42.6-21.3-52.82,12.56-98.82,14.26
			c-5.96,0-40.040,6.6-40.040-58.56c 49.84-5.76, 71.56-40.040, 138.86-32.38c-75.82-28.1-170.8,88.18-184-39.18
			c0-27.26, 20.42-40.96, 20.42-40.96s 235.98,0, 235.14,0C 481.66,323.22, 458.68,397.42, 416.080,393.16z M 321.44-12L 428,289.38L 212.54,289.38 
			L 321.44-12z" data-tags="ice cream, cone" />
<glyph unicode="&#xe0d5;" d="M 461.1,429.88c 11.14,0, 20.16-9.020, 20.16-20.16l-36.54-401.86
	c0-11.14-9.020-20.16-20.16-20.16L 215.42-12.3 c-11.14,0-20.16,9.020-20.16,20.16L 158.76,409.72c0,11.14, 9.020,20.16, 20.16,20.16l 180.2,0 
	l 21.32,108.72l 96.78,49.7l-6.96-25.96l-71.84-36.020l-18.76-96.44L 461.1,429.88 z M 350.28,288.78l 80.58,0 l-22.68-260.76l-176.36,0 l-22.68,260.76
	l 120.58,0 l 25.18,120.94l-176,0 l 36.52-401.86l 209.12,0 l 36.54,401.86l-85.64,0 L 350.28,288.78z" data-tags="drink, straw, glass" />
<glyph unicode="&#xe0d6;" d="M 560,468L 259.92,467.66L 260,526.76L 100,528l0-60 L 60,468 C 37.92,468, 20,450.080, 20,428l0-340 
			c0-22.080, 17.92-40, 40-40l 500,0 c 22.080,0, 40,17.92, 40,40L 600,428 C 600,450.080, 582.080,468, 560,468z M 140,488l 80,0 l0-60 L 140,428 L 140,488 z M 240,108.84c-77.32,0-140,62.68-140,140
			c0,77.32, 62.68,140, 140,140c 77.3,0, 140-62.68, 140-140C 380,171.52, 317.3,108.84, 240,108.84z M 510,337.58c-22.1,0-40,17.9-40,40
			c0,22.080, 17.9,40, 40,40c 22.080,0, 40-17.92, 40-40C 550,355.5, 532.080,337.58, 510,337.58z M 240,335.5c-49.7,0-90-40.3-90-90
			s 40.3-90, 90-90s 90,40.3, 90,90S 289.7,335.5, 240,335.5z" data-tags="camera, pictures, photos, images" />
<glyph unicode="&#xe0d7;" d="M 560,448l-118.76,0 C 441.24,448, 440,450.38, 440,478S 417.62,528, 390,528l-160,0 
			C 202.38,528, 180,505.62, 180,478S 181.24,448, 181.24,448L 60,448 c-22.080,0-40-17.92-40-40l0-320 c0-22.080, 17.92-40, 40-40l 500,0 c 22.080,0, 40,17.92, 40,40L 600,408 
			C 600,430.080, 582.080,448, 560,448z M 310.9,128.54c-66.28,0-120,53.72-120,120c0,66.26, 53.72,120, 120,120c 66.26,0, 120-53.72, 120-120
			C 430.9,182.26, 377.16,128.54, 310.9,128.54z" data-tags="camera, pictures, photos, images" />
<glyph unicode="&#xe0d8;" d="M 560,8L 80,8 c-22.080,0-40,17.92-40,40L 40,468 c0,22.080, 17.92,40, 40,40l 40,0 l0-20 c0-33.14, 26.86-60, 60-60
	s 60,26.86, 60,60L 240,508 l 160,0 l0-20 c0-33.14, 26.88-60, 60-60s 60,26.86, 60,60L 520,508 l 40,0 c 22.080,0, 40-17.92, 40-40l0-420 C 600,25.92, 582.080,8, 560,8z M 560,368L 80,368 l0-320 l 480,0 L 560,368 z
	 M 261.38,211.42c 3.94,6.28, 5.92,12.92, 5.92,19.86c0,15.46-8.32,23.2-24.96,23.2c-14.46,0-28.28-5.74-41.48-17.22l0,32.58 
	c 14.6,9.46, 31.1,14.18, 49.46,14.18c 17.18,0, 30.6-4.32, 40.26-12.94s 14.48-20.3, 14.48-34.98c0-19.6-11.76-39.88-35.28-60.82
	l-34.58-30.7l0-0.7 l 68.2,0 l0-30.7 L 192.78,113.18 l0,28.82 l 48.16,46.060C 250.62,197.34, 257.44,205.12, 261.38,211.42z M 396.74,144.68
	c 5.28,4.060, 7.92,9.72, 7.92,17c0,7.5-3.26,13.28-9.78,17.34s-15.48,6.1-26.9,6.1l-15.12,0 l0,28.36 l 13.94,0 
	c 21.88,0, 32.82,7.26, 32.82,21.8c0,13.68-8.4,20.5-25.2,20.5c-11.24,0-22.18-3.64-32.82-10.9l0,30.24 
	c 11.8,5.94, 25.54,8.9, 41.24,8.9c 17.18,0, 30.56-3.86, 40.14-11.6s 14.36-17.78, 14.36-30.12c0-21.96-11.14-35.7-33.4-41.24l0-0.58 
	c 11.88-1.48, 21.24-5.8, 28.12-12.94s 10.32-15.92, 10.32-26.3c0-15.7-5.74-28.12-17.22-37.26s-27.34-13.72-47.58-13.72
	c-17.34,0-31.44,2.82-42.3,8.44l0,32.22 c 11.24-8.2, 24.38-12.3, 39.38-12.3C 384.1,138.58, 391.46,140.62, 396.74,144.68z
	 M 459.38,448C 437.62,448, 420,465.62, 420,487.38L 420,528.62 C 420,550.38, 437.62,568, 459.38,568s 39.38-17.62, 39.38-39.38l0-41.24 
	C 498.76,465.62, 481.14,448, 459.38,448z M 179.38,448C 157.62,448, 140,465.62, 140,487.38L 140,528.62 C 140,550.38, 157.62,568, 179.38,568s 39.38-17.62, 39.38-39.38l0-41.24 
	C 218.76,465.62, 201.12,448, 179.38,448z" data-tags="calendar, date, schedule" />
<glyph unicode="&#xe0d9;" d="M 100-12L 100,488 l 83.34,80l 253.34,0 L 520,488l0-500 L 100-12 z M 120,8l 380,0 L 500,468 L 120,468 L 120,8 z M 140,228l 340,0 l0-200 L 140,28 L 140,228 z M 260,148l0-20 l 20,0 
	l 60,0 l 20,0 l0,20 l0,40 l-20,0 l0-40 l-60,0 l0,40 l-20,0 L 260,148 z M 140,448l 340,0 l0-200 L 140,248 L 140,448 z M 260,348l 20,0 l 60,0 l 20,0 l0,20 l0,40 l-20,0 l0-40 l-60,0 l0,40 l-20,0 L 260,348 z" data-tags="cabinet, drawer, storage" />
<glyph unicode="&#xe0da;" d="M 100,8L 100,488 l 83.34,80l 253.34,0 L 520,488l0-480 L 100,8 z M 500,168l0,20 l0,120 l0,20 L 500,468 L 120,468 l0-140 l0-20 l0-120 l0-20 l0-140 l 380,0 L 500,168 z M 480,328L 140,328 
	L 140,448 l 340,0 L 480,328 z M 360,408l-100,0 l0-20 l 100,0 L 360,408 z M 480,188L 140,188 l0,120 l 340,0 L 480,188 z M 360,268l-100,0 l0-20 l 100,0 L 360,268 z M 480,48L 140,48 l0,120 l 340,0 L 480,48 z M 360,128l-100,0 l0-20 l 100,0 L 360,128 z" data-tags="cabinet, drawer, storage" />
<glyph unicode="&#xe0db;" d="M 432,448l-220,0 L 80,268l0-100 c0-22.080, 17.92-40, 40-40l 400,0 c 22.080,0, 40,17.92, 40,40l0,100 L 432,448z
			 M 449.3,267.54l-41.040-60.040l-171.76,0.4l-44.040,59.88l-81.72,0.48l 113.24,159.5L 420,427.76 l 112-159.5L 449.3,267.54z M 347.5,388
			c0,11.040-6.46,20-17.5,20c-11.060,0-18.76-8.96-18.76-20l0-78.76 L 262.5,308l 67.5-76.24L 396.24,308l-48.76,1.24L 347.48,388 z" data-tags="download, drawer, save, store, archive" />
<glyph unicode="&#xe0dc;" d="M 432,448l-220,0 L 80,268l0-100 c0-22.080, 17.92-40, 40-40l 400,0 c 22.080,0, 40,17.92, 40,40l0,100 L 432,448z
			 M 449.3,267.56l-41.040-60.060l-171.78,0.4l-44.020,59.9l-81.72,0.46l 113.24,159.5L 420,427.76 l 112-159.5L 449.3,267.56z M 262.5,328
			l 48.76-1.24L 311.26,248 c0-11.060, 7.7-20, 18.76-20c 11.040,0, 17.5,8.94, 17.5,20l0,78.76 L 396.24,328L 330,404.24L 262.5,328z" data-tags="upload, drawer, load" />
<glyph unicode="&#xe0dd;" d="M 432,448l-220,0 L 80,248l0-100 c0-22.080, 17.92-40, 40-40l 400,0 c 22.080,0, 40,17.92, 40,40l0,100 L 432,448z
			 M 449.3,247.54l-41.040-80.040l-171.78,0.4l-44.020,79.9l-81.72,0.46l 113.24,179.5L 420,427.76 l 112-179.5L 449.3,247.54z M 240,188l 160,0 l0,20 l-160,0 L 240,188 z
			 M 236.66,408.060L 148.34,268l 348.32,0 l-90,140.060L 236.66,408.060 z M 220,228l 200,0 l0,20 L 220,248 L 220,228 z" data-tags="inbox, archive, drawer" />
<glyph unicode="&#xe0de;" d="M 432,448l-220,0 L 80,268l0-100 c0-22.080, 17.92-40, 40-40l 400,0 c 22.080,0, 40,17.92, 40,40l0,100 L 432,448z
			 M 449.3,267.54l-41.040-60.040l-171.76,0.4l-44.040,59.88l-81.72,0.48L 224,427.74L 420,427.74 l 112-159.5L 449.3,267.54z" data-tags="inbox, archive, drawer" />
<glyph unicode="&#xe0df;" d="M 425.36,167.22l 14.18,14.18c 15.66,15.66, 15.66,41.060,0,56.72l-24.48,24.46
			c 7.88,13.72, 14.060,28.48, 18.36,44.060l 26.48,0 c 22.14,0, 40.1,17.96, 40.1,40.1l0,20.040 c0,22.14-17.94,40.1-40.1,40.1l-26.16,0 
			C 429.58,422.3, 423.68,436.98, 416,450.6l 23.54,23.52c 15.66,15.66, 15.66,41.060,0,56.72l-14.18,14.16
			c-15.66,15.66-41.060,15.66-56.72,0l-23.060-23.060c-14.1,8.22-29.34,14.62-45.44,19.020L 300.14,567.9 C 300.12,590.060, 282.16,608, 260.020,608
			l-20.040,0 c-22.14,0-40.12-17.94-40.12-40.1l0-26.94 c-16.1-4.4-31.32-10.8-45.44-19.020L 131.34,545.020
			c-15.64,15.66-41.040,15.66-56.7,0L 60.46,530.86c-15.66-15.66-15.66-41.060,0-56.72L 83.98,450.6c-7.66-13.62-13.6-28.3-17.74-43.74
			L 40.1,406.86 C 17.94,406.88,0,388.92,0,366.76l0-20.040 c0-22.14, 17.94-40.1, 40.1-40.1l 26.46,0 c 4.32-15.58, 10.48-30.34, 18.38-44.060
			l-24.48-24.46c-15.66-15.66-15.66-41.060,0-56.72l 14.18-14.18c 15.66-15.66, 41.060-15.66, 56.7,0l 24.62,24.62
			c 13.68-7.78, 28.38-13.84, 43.88-18.060l0-25.68 c0-22.12, 17.96-40.1, 40.12-40.1l 20.040,0 c 22.14,0, 40.1,17.96, 40.1,40.1l0,25.68 
			c 15.5,4.22, 30.24,10.3, 43.88,18.060l 24.62-24.62C 384.3,151.56, 409.68,151.56, 425.36,167.22z M 250,245.86
			c-60.9,0-110.28,49.36-110.28,110.28c0,60.9, 49.38,110.28, 110.28,110.28s 110.28-49.38, 110.28-110.28
			C 360.28,295.22, 310.9,245.86, 250,245.86z M 250,407.5c-27.7,0-50.14-22.44-50.14-50.12s 22.44-50.12, 50.14-50.12
			c 27.68,0, 50.12,22.44, 50.12,50.12S 277.68,407.5, 250,407.5z M 501.24,30.76c-13.44,0-24.32-10.88-24.32-24.32
			c0-13.42, 10.88-24.3, 24.32-24.3c 13.42,0, 24.32,10.88, 24.32,24.3C 525.56,19.88, 514.66,30.76, 501.24,30.76z M 603.040,30.46
			l-12.68,0 c-2.020,7.48-4.9,14.6-8.62,21.22l 11.4,11.4c 7.6,7.6, 7.6,19.92,0,27.5l-6.88,6.88c-7.6,7.6-19.9,7.6-27.5,0
			l-11.2-11.18c-6.84,3.98-14.24,7.080-22.040,9.22l0,13.040 c0,10.74-8.72,19.46-19.46,19.46l-9.72,0 
			c-10.74,0-19.46-8.72-19.46-19.46l0-13.040 c-7.82-2.14-15.2-5.24-22.040-9.22l-11.2,11.18c-7.6,7.6-19.92,7.6-27.5,0
			l-6.88-6.88c-7.6-7.58-7.6-19.9,0-27.5l 11.4-11.4c-3.74-6.6-6.6-13.74-8.62-21.22l-12.68,0 
			c-10.74,0-19.46-8.72-19.46-19.46l0-9.72 c0-10.74, 8.72-19.46, 19.46-19.46l 12.84,0 c 2.080-7.54, 5.080-14.7, 8.9-21.36
			l-11.86-11.86c-7.6-7.6-7.6-19.9,0-27.52l 6.88-6.88c 7.58-7.58, 19.9-7.58, 27.5,0l 11.94,11.96
			c 6.64-3.76, 13.76-6.72, 21.28-8.76l0-12.46 c0-10.74, 8.72-19.46, 19.46-19.46l 9.72,0 c 10.74,0, 19.46,8.72, 19.46,19.46l0,12.46 
			c 7.52,2.040, 14.64,4.98, 21.26,8.76l 11.96-11.96c 7.6-7.58, 19.9-7.58, 27.5,0l 6.88,6.88c 7.6,7.62, 7.6,19.92,0,27.52
			l-11.86,11.86c 3.8,6.66, 6.82,13.82, 8.9,21.36l 12.84,0 c 10.74,0, 19.46,8.72, 19.46,19.46L 622.42,11 
			C 622.5,21.76, 613.78,30.46, 603.040,30.46z M 501.24-47.64c-29.54,0-53.48,23.94-53.48,53.5c0,29.54, 23.94,53.48, 53.48,53.48
			s 53.48-23.94, 53.48-53.48C 554.72-23.7, 530.78-47.64, 501.24-47.64z" data-tags="cogs, settings, gears, options, generate" />
<glyph unicode="&#xe0e0;" d="M 519.9,226.64l-26.48,0 c-4.3-15.58-10.46-30.36-18.36-44.060l 24.48-24.46
	c 15.66-15.66, 15.66-41.060,0-56.72l-14.18-14.18c-15.66-15.66-41.060-15.66-56.72,0L 404,111.84c-13.66-7.78-28.38-13.84-43.88-18.060
	l0-25.68 c0-22.14-17.94-40.1-40.1-40.1l-20.040,0 c-22.14,0-40.12,17.94-40.12,40.1l0,25.68 c-15.48,4.22-30.22,10.3-43.88,18.060
	l-24.62-24.62c-15.64-15.66-41.040-15.66-56.7,0L 120.46,101.4c-15.66,15.66-15.66,41.060,0,56.72l 24.48,24.46
	c-7.9,13.72-14.060,28.48-18.38,44.060L 100.1,226.64 C 77.94,226.64, 60,244.58, 60,266.72l0,20.060 c0,22.14, 17.94,40.1, 40.1,40.1l 26.16,0 
	C 130.4,342.3, 136.32,356.98, 144,370.6l-23.54,23.52c-15.66,15.66-15.66,41.060,0,56.72l 14.18,14.16c 15.66,15.66, 41.060,15.66, 56.7,0
	l 23.060-23.060c 14.12,8.22, 29.36,14.62, 45.44,19L 259.84,487.9 C 259.86,510.060, 277.84,528, 299.98,528l 20.040,0 c 22.14,0, 40.1-17.94, 40.1-40.1
	l0-26.94 c 16.12-4.4, 31.34-10.8, 45.44-19.020l 23.060,23.060c 15.66,15.66, 41.060,15.66, 56.72,0l 14.18-14.16
	c 15.66-15.66, 15.66-41.060,0-56.72L 476,370.6c 7.68-13.62, 13.6-28.3, 17.76-43.74l 26.16,0 c 22.14,0, 40.1-17.96, 40.1-40.1l0-20.060 
	C 560,244.58, 542.060,226.64, 519.9,226.64z M 310,386.4c-60.9,0-110.28-49.38-110.28-110.28s 49.38-110.28, 110.28-110.28
	s 110.28,49.38, 110.28,110.28S 370.9,386.4, 310,386.4z M 310,227.26c-27.68,0-50.14,22.42-50.14,50.12c0,27.68, 22.46,50.12, 50.14,50.12
	s 50.12-22.44, 50.12-50.12C 360.12,249.68, 337.68,227.26, 310,227.26z" data-tags="cog, gear, settings, options" />
<glyph unicode="&#xe0e1;" d="M 531.46,318L 570,318 l0-60 l-38.54,0 c-2.62-19.12-7.48-37.52-14.68-54.74l 33.38-19.28
	l-30-51.96l-33.96,19.6c-11.66-14.72-25.2-27.84-40.22-39.16l 20-34.62l-51.96-30l-20.42,35.34
	c-16.98-6.62-34.9-11.24-53.62-13.46L 339.98,28 l-60,0 l0,42.86 c-18.24,2.82-35.82,7.62-52.28,14.62l-21.74-37.64l-51.96,30l 22.26,38.56
	c-13.94,11.18-26.38,24.060-37.24,38.26l-39.22-22.64l-30,51.96l 39.58,22.86c-6.42,16.22-10.92,33.36-13.36,51.18L 50,258.020 l0,60 l 46.040,0 
	c 2.44,17.84, 6.94,34.98, 13.36,51.18l-39.58,22.86l 30,51.96l 39.22-22.64c 10.86,14.2, 23.3,27.080, 37.24,38.28L 154.020,498.16
	l 51.96,30l 21.74-37.64c 16.46,7, 34.040,11.82, 52.28,14.62L 280,548 l 60,0 l0-41.7 c 18.72-2.22, 36.64-6.84, 53.62-13.46l 20.42,35.34l 51.96-30
	l-20-34.64c 15.020-11.32, 28.56-24.44, 40.22-39.16l 33.96,19.6l 30-51.96l-33.38-19.28C 523.98,355.52, 528.84,337.12, 531.46,318z
	 M 309.82,418.18c-71.8,0-130-58.2-130-130s 58.2-130, 130-130s 130,58.2, 130,130S 381.62,418.18, 309.82,418.18z M 310,238
	c-27.62,0-50,22.38-50,50s 22.38,50, 50,50S 360,315.62, 360,288S 337.62,238, 310,238z" data-tags="cog, gear, settings, options" />
<glyph unicode="&#xe0e2;" d="M 611.1,103.62L 360.72,532.34c-20.88,20.88-54.76,20.88-75.64,0L 34.68,103.62
			c-20.88-20.86-20.88-54.72,0-75.62l 576.4,0 C 632,48.9, 632,82.76, 611.1,103.62z M 299.84,378.44c0,16.58, 13.44,30, 30,30
			s 30-13.42, 30-30l0-140 c0-16.56-13.44-30-30-30s-30,13.44-30,30L 299.84,378.44 z M 330.020,108.28c-16.56,0-30,13.4-30,30
			c0,16.56, 13.44,30, 30,30s 30-13.44, 30-30C 360.020,121.68, 346.58,108.28, 330.020,108.28z" data-tags="warning, notice, note" />
<glyph unicode="&#xe0e3;" d="M 540,28l-80,0 L 460,448 l 80,0 c 22.080,0, 40-17.92, 40-40l0-340 C 580,45.92, 562.080,28, 540,28z M 200,448L 200,448L 200,488 
	c0,22.1, 17.92,40, 40,40l 140,0 c 22.080,0, 40-17.9, 40-40l0-40 l0-420 L 200,28 L 200,448 z M 240,448l 140,0 c0,0,0,8.96,0,20c0,11.060-8.96,20-20,20l-100,0 c-11.060,0-20-8.94-20-20
	C 240,456.96, 240,448, 240,448z M 40,68L 40,408 c0,22.080, 17.92,40, 40,40l 80,0 l0-420 L 80,28 C 57.92,28, 40,45.92, 40,68z" data-tags="suitcase, briefcase" />
<glyph unicode="&#xe0e4;" d="M 560,28L 80,28 c-22.080,0-40,17.92-40,40l0,180 l 80,0 l0-60 l 80,0 l0,60 l 240,0 l0-60 l 80,0 l0,60 l 80,0 l0-180 
	C 600,45.92, 582.080,28, 560,28z M 460,208l0,80 l 40,0 l0-80 L 460,208 z M 140,208l0,80 l 40,0 l0-80 L 140,208 z M 520,308l-80,0 l0-40 L 200,268 l0,40 L 120,308 l0-40 L 40,268 l0,140 c0,22.080, 17.92,40, 40,40l 480,0 
	c 22.080,0, 40-17.92, 40-40l0-140 l-80,0 L 520,308 z M 380,508.42l-120,0 L 260,468 l-40,0 L 220,487.58 l 20,0 L 240,548 l 160.42,0 l0-60 L 420,488 l0-20 l-40,0 L 380,508.42 z" data-tags="suitcase, briefcase" />
<glyph unicode="&#xe0e5;" d="M 540,28L 80,28 c-22.1,0-40,17.92-40,40L 40,308 c0,0, 104.42-53.7, 200-75.68L 240,208 
	c0-11.060, 8.94-20, 20-20l 100,0 c 11.040,0, 20,8.94, 20,20l0,24.32 C 475.56,254.3, 580,308, 580,308l0-240 C 580,45.92, 562.080,28, 540,28z M 340,268
	c 11.040,0, 20-8.94, 20-20l0-20 c0-11.060-8.96-20-20-20l-60,0 c-11.060,0-20,8.94-20,20l0,20 c0,11.060, 8.94,20, 20,20L 340,268 z M 380,268c0,11.060-8.96,20-20,20l-100,0 
	c-11.060,0-20-8.94-20-20l0-17.92 C 144.42,272.72, 40,328, 40,328l0,80 c0,22.080, 17.9,40, 40,40l 120,0 L 200,488 c0,22.080, 17.92,40, 40,40l 140,0 c 22.080,0, 40-17.92, 40-40l0-40 l 120,0 
	c 22.080,0, 40-17.92, 40-40l0-80 c0,0-104.44-55.28-200-77.92L 380,268 z M 380,468c0,11.060-8.96,20-20,20l-100,0 c-11.060,0-20-8.94-20-20c0-11.040,0-20,0-20l 140,0 
	C 380,448, 380,456.96, 380,468z" data-tags="suitcase, briefcase" />
<glyph unicode="&#xe0e6;" d="M 391.42,390.86l-62.88-94.64l-45.7,46.060l-45.72-73.94l-34.28,33.94L 165.72,228
			l 291.44,0 L 391.42,390.86z M 80,508l0-460 l 460,0 L 540,508 L 80,508 z M 500,188L 120,188 L 120,468 l 380,0 L 500,188 z M 209.82,346.58c 16.58,0, 30,13.42, 30,30s-13.42,30-30,30
			c-16.56,0-30-13.42-30-30S 193.26,346.58, 209.82,346.58z" data-tags="picture, images, photos, polaroid" />
<glyph unicode="&#xe0e7;" d="M 554.66,215.3l-26.32-98.28l-0.74-0.2l-28.76-107.34l-185.92,49.8l-2.22-0.58
	l-195.76,52.44l-0.34,1.28L 62.5,126.4l 9.86,36.82l 0.64-0.18L 169.58,523.48L 168.94,523.66l 10.18,37.94l 342.1-91.68l 0.32,1.12
	l 94.22-25.24L 554.32,216.6L 554.66,215.3z M 567.64,418.040L 207.18,514.62l-71.16-265.6l 360.42-96.56L 567.64,418.040z M 244.68,340.16
	l 23.88-40.9l 62.14,58.5l 31.66-55.32l 83.7,73.78l 20.94-171.18L 190.56,279.16L 244.68,340.16z M 262.54,380.4
	c-15.7,4.22-25.040,20.38-20.82,36.080c 4.2,15.72, 20.36,25.060, 36.080,20.84c 15.7-4.22, 25.040-20.38, 20.82-36.080
	C 294.42,385.52, 278.26,376.18, 262.54,380.4z M 432.8,518.42l-8.28-2.22l-75.9,20.34l 111.96,30l 17.32-64.62l-43.8,11.74L 432.8,518.42
	z M 72.34,421.82l 24.84-92.7l-20.34-75.88L 24.24,449.6L 137.6,479.98l-11.74-43.8L 72.34,421.82z M 141.16,13.28L 120.8,89.24l 151.94-40.72
	L 141.16,13.28z" data-tags="pictures, images, photos, polaroid" />
<glyph unicode="&#xe0e8;" d="M 531.246,16.686l-52.398,14.378l-0.12,144.933l 50.121-14.098l 72.266,269.756L 235.051,529.741
	l-24.122-89.979L 169.634,439.762 l 37.201,138.823l 443.165-118.734L 531.246,16.686z M 460.058-31.499L0-31.499 L0,427.321 l 460.058,0 L 460.058-31.499 z M 420.161,387.424L 39.898,387.424 l0-279.261 l 380.264,0 
	L 420.161,387.424 z M 156.734,188.296l 45.589,73.724l 45.589-45.948l 62.681,94.392l 65.558-162.425L 85.486,148.040 l 37.041,74.084L 156.734,188.296z M 129.476,266.314
	c-16.534,0-29.933,13.379-29.933,29.913s 13.399,29.913, 29.933,29.913s 29.913-13.379, 29.913-29.913S 146.011,266.314, 129.476,266.314z" horiz-adv-x="650" data-tags="pictures, images, photos, polaroid" />
<glyph unicode="&#xe0e9;" d="M 360,168c-22.080,0-40,17.92-40,40l0,40 c0,22.1, 17.92,40, 40,40l 240,0 l0-120 L 360,168 z M 390,256.34
	c-16.56,0-30-13.44-30-30c0-16.58, 13.44-30, 30-30c 16.58,0, 30,13.42, 30,30C 420,242.9, 406.58,256.34, 390,256.34z M 300,248l0-40 
	c0-33.12, 26.88-60, 60-60l 200,0 l0-80 c0-33.12-26.86-60-60-60L 80,8 c-33.12,0-60,26.88-60,60L 20,448 c0,33.14, 26.88,60, 60,60l 192.64,0 l-46.98-19.58L 70.020,488.42 
	c-16.56,0-30-13.44-30-30c0-16.58, 13.44-30, 30-30L 560,428.42 L 560,308 L 360,308 C 326.88,308, 300,281.14, 300,248z M 100.020,388l-40,0 l0-40 l 20,0 l0,20 l 20,0 L 100.020,388 z M 100.020,328
	l-40,0 l0-40 l 20.82,0 l-0.82,20l 20-0.42L 100.020,328 z M 100.020,268l-40,0 l0-40 l 20.42,0 l-0.42,20l 20,0 L 100.020,268 z M 100.020,208l-40,0 l0-40 l 20.42,0 l-0.42,20l 20-0.42L 100.020,208 z M 100.020,148l-40,0 l0-40 l 20,0 
	l0,20 l 20,0 L 100.020,148 z M 100.020,88l-40,0 l0-40 l 20.42,0 l-0.42,19.58l 20,0 L 100.020,88 z M 180.020,449.24L 415.020,548l 45-98.76L 180.020,449.24 z M 452.92,508L 500,508 
	c 17.52,0, 33.12-7.62, 44.1-19.58l-81.62,0 L 452.92,508z" data-tags="wallet, money" />
<glyph unicode="&#xe0ea;" d="M 480,68l-60,0 c-11.060,0-20,8.94-20,20l0,40 c0,11.060, 8.94,20, 20,20l 40,0 l0,120 l-140,0 l0-120 l 20,0 
	c 11.040,0, 20-8.94, 20-20l0-40 c0-11.060-8.96-20-20-20l-60,0 c-11.060,0-20,8.94-20,20l0,40 c0,11.060, 8.94,20, 20,20l 20,0 l0,120 L 160,268 l0-120 l 40,0 c 11.040,0, 20-8.94, 20-20l0-40 
	c0-11.060-8.96-20-20-20L 140,68 c-11.060,0-20,8.94-20,20l0,40 c0,11.060, 8.94,20, 20,20l0,120 l0,20 l 20,0 l 140,0 L 300,428 l-20,0 c-11.060,0-20,8.96-20,20L 260,488 c0,11.040, 8.94,20, 20,20l 60,0 
	c 11.040,0, 20-8.96, 20-20l0-40 c0-11.040-8.96-20-20-20l-20,0 l0-140 l 140,0 l 20,0 l0-20 l0-120 c 11.040,0, 20-8.94, 20-20l0-40 C 500,76.94, 491.040,68, 480,68z" data-tags="site map, tree, map" />
<glyph unicode="&#xe0eb;" d="M 479.44,68.7l-59.8,0 c-11,0-19.94,8.9-19.94,19.92l0,39.88 
	c0,10.98, 8.94,19.92, 19.94,19.92l 39.86,0 l0,99.68 l-139.54,0 l0-99.68 l 19.92,0 c 11.020,0, 19.94-8.94, 19.94-19.92l0-39.88 
	c0-11.020-8.92-19.92-19.94-19.92l-59.8,0 c-11,0-19.92,8.9-19.92,19.92l0,39.88 c0,10.98, 8.92,19.92, 19.92,19.92l 19.96,0 l0,99.68 
	L 160.48,248.1 l0-99.68 l 39.86,0 c 11.020,0, 19.94-8.94, 19.94-19.92l0-39.88 c0-11.020-8.92-19.92-19.94-19.92L 140.56,68.7 c-11.020,0-19.94,8.9-19.94,19.92
	l0,39.88 c0,10.98, 8.92,19.92, 19.94,19.92l0,99.68 l0,19.92 l 19.92,0 l 139.56,0 l0,79.74 l-59.8,0 c-11.020,0-19.94,8.92-19.94,19.94L 220.3,467.38 
	c0,11, 8.92,19.94, 19.94,19.94l 139.54,0 c 11.020,0, 19.92-8.92, 19.92-19.94l0-99.66 c0-11-8.9-19.94-19.92-19.94l-59.8,0 l0-79.74 l 139.54,0 
	l 19.94,0 l0-19.92 l0-99.68 c 11,0, 19.94-8.94, 19.94-19.92l0-39.88 C 499.38,77.6, 490.42,68.7, 479.44,68.7z M 140.56,128.5l0-39.88 l 59.78,0 
	l0,39.88 L 140.56,128.5 z M 379.76,367.7L 379.76,467.38 l-139.54,0 l0-99.66 L 379.76,367.72 z M 280.080,128.5l0-39.88 l 59.8,0 l0,39.88 L 280.080,128.5 z M 479.44,128.5l-59.8,0 l0-39.88 
	l 59.8,0 L 479.44,128.5 z" data-tags="site map, tree, map" />
<glyph unicode="&#xe0ec;" d="M 557.46,48c0,0, 110.4-0.12, 125.9,107.9c 7.38,118.12-106.72,141.4-106.72,141.4
	s 12.98,174.86-147.22,194.8c-137.3,14.020-179.080-113.58-179.080-113.58s-41.36,39.76-97.46,7.28c-50.22-31-41.34-87.76-41.34-87.76
	S0,276.36,0,162.68C 2.5,49.14, 121.14,48, 121.14,48" horiz-adv-x="700" data-tags="cloud, weather" />
<glyph unicode="&#xe0ed;" d="M 560-12L 80-12 c-33.14,0-60,26.88-60,60L 20,328 c0,33.14, 26.86,60, 60,60l 480,0 c 33.12,0, 60-26.86, 60-60l0-280 
	C 620,14.88, 593.12-12, 560-12z M 160,247.18c-33.14,0-60-31.34-60-70c0-38.68, 26.86-70, 60-70c 33.12,0, 60,31.32, 60,70
	C 220,215.84, 193.12,247.18, 160,247.18z M 315.6,230.040c-2.3,4.74-5.38,8.44-9.16,11.060c-3.8,2.64-8.52,4.42-14.14,5.36
	c-4,0.74-9.8,1.1-17.4,1.1l-35.66,0 l0-138.28 l 20.16,0 l0,40.32 l 16.84,0 c 16.2,0, 27.36,7.12, 33.58,13.86
	c 6.18,6.76, 9.28,36.24, 9.28,45.98C 319.080,215.080, 317.92,225.3, 315.6,230.040z M 420.48,129.1l-61.16,0 l0,40.16 l 59.12,0 l0,18.6 l-59.12,0 
	l0,41.1 l 61,0 l0,18.6 l-79.9,0 l0-138.28 l 80.060,0 L 420.48,129.1 z M 539.080,247.54L 520.8,247.54 l0-106.2 l-60.24,106.2l-20.54,0 l0-138.28 l 19.54,0 l0,101.22 l 60.24-101.22l 19.3,0 
	L 539.1,247.54 z M 276.46,169.4L 259.4,169.4 l0,59.54 l 16.76,0 c 6.86,0, 11.56-0.34, 14.12-1.020c 3.94-1.1, 7.14-3.32, 9.56-6.72
	c 2.42-3.4, 3.64-7.5, 3.64-12.26c0-6.6-2.060-30.44-6.18-34.080C 293.18,171.22, 286.24,169.4, 276.46,169.4z M 160,125.5
	c-22.080,0-40,22.38-40,50s 17.92,50, 40,50s 40-22.38, 40-50S 182.080,125.5, 160,125.5z M 500,388l-146.44,109C 346.68,491.46, 338.060,488, 328.56,488
	c-13.24,0-24.88,6.5-32.14,16.42L 140,388L 120,388 l 169.86,130.36C 289.1,521.46, 288.56,524.66, 288.56,528c0,22.080, 17.92,40, 40,40c 22.1,0, 40-17.92, 40-40
	c0-7.18-2.060-13.84-5.38-19.68L 520,388L 500,388 z" data-tags="open" />
<glyph unicode="&#xe0ee;" d="M 560-12L 80-12 c-33.14,0-60,26.88-60,60L 20,328 c0,33.14, 26.86,60, 60,60l 40,0 l 169.86,130.36
	C 289.1,521.46, 288.58,524.66, 288.58,528c0,22.080, 17.92,40, 40,40s 39.98-17.92, 39.98-40c0-7.18-2.040-13.84-5.38-19.68L 520,388l 40,0 
	c 33.12,0, 60-26.86, 60-60l0-280 C 620,14.88, 593.12-12, 560-12z M 341.42,116.34l 80.62,0 l0,15.16 l-63.6,0 l0,113.76 l-17.040,0 L 341.4,116.34 z M 226.060,116.34
	l 14.12,39.060l 54.16,0 l 14.84-39.060l 19.44,0 l-52.56,128.9l-18.48,0 l-49.56-128.9L 226.060,116.34 z M 106.84,230.12
	c-3.68-5.68-5.52-11.78-5.52-18.28c0-5.94, 1.5-11.28, 4.52-16.080s 7.6-8.78, 13.74-12.040c 4.72-2.52, 12.98-5.2, 24.78-8.040
	s 19.42-4.94, 22.88-6.28c 5.38-2.080, 9.24-4.58, 11.62-7.6s 3.58-6.52, 3.58-10.56c0-3.96-1.22-7.66-3.64-11.040
	s-6.12-6.040-11.1-7.98c-4.96-1.96-10.68-2.92-17.16-2.92c-7.3,0-13.86,1.26-19.7,3.84
	c-5.86,2.54-10.16,5.9-12.92,10.060s-4.56,9.48-5.32,15.94l-16.1-1.4c 0.24-8.62, 2.6-16.32, 7.080-23.14
	c 4.48-6.84, 10.64-11.96, 18.5-15.36c 7.88-3.4, 17.62-5.1, 29.26-5.1c 9.16,0, 17.42,1.68, 24.76,5.060
	c 7.34,3.36, 12.96,8.040, 16.88,14.12c 3.92,6.060, 5.88,12.5, 5.88,19.36c0,6.9-1.8,12.98-5.38,18.28
	c-3.58,5.32-9.12,9.68-16.64,13.12c-5.18,2.34-14.66,5.080-28.46,8.2c-13.82,3.14-22.36,6.22-25.62,9.22
	c-3.34,2.96-5,6.78-5,11.4c0,5.36, 2.36,9.9, 7.060,13.68c 4.7,3.78, 12.18,5.68, 22.46,5.68
	c 9.88,0, 17.34-2.080, 22.38-6.2c 5.060-4.14, 8-10.26, 8.88-18.34l 16.4,1.24c-0.3,7.56-2.4,14.32-6.3,20.28
	c-3.92,5.96-9.52,10.48-16.8,13.56s-15.68,4.6-25.22,4.6c-8.66,0-16.52-1.46-23.6-4.4
	C 115.9,240.080, 110.52,235.8, 106.84,230.12z M 353.56,497C 346.68,491.46, 338.080,488, 328.58,488c-13.24,0-24.88,6.5-32.16,16.42L 140,388l 360,0 
	L 353.56,497z M 538.72,131.5l-79.060,0 L 459.66,175.4 l 71.24,0 l0,15.16 l-71.24,0 l0,39.54 l 76.1,0 l0,15.16 l-93.12,0 l0-128.9 l 96.1,0 L 538.74,131.5 z M 266.28,231.8
	c 2.080-7.060, 5.12-16, 9.14-26.86l 13.58-35.64l-43.98,0 l 14.3,37.74C 262.26,215.18, 264.58,223.44, 266.28,231.8z" data-tags="sale" />
<glyph unicode="&#xe0ef;" d="M 399.7,47l 140.66,64.28L 540.36,529 l-140.66-64.26L 399.7,47 z M 240.3,111.28l 139.6-57.86
	L 379.9,471.16 l-139.6,57.84L 240.3,111.28 z M 79.62,464.74L 79.62,47 l 140.86,57.84L 220.48,522.58 L 79.62,464.74z" data-tags="map, location, address" />
<glyph unicode="&#xe0f0;" d="M 652.78,256.78c0,0-91.84,93.64-218.4,93.64c-123.66,0-245.9-93.64-245.9-93.64
	l-68.66,28.66l0-84.080 c 10.82-3.68, 18.74-13.64, 18.74-25.7c0-12.18-8.080-22.16-19.060-25.76l 20.3-56.62L 79.88,93.28 l 20.48,57.1
	c-9.84,4.18-16.72,13.9-16.72,25.28c0,11.14, 6.68,20.62, 16.22,24.94l0,93.18 L0,335.42l 439.38,197.22l 403.12-199.7L 652.78,256.78z
	 M 429.38,302.98c 127.32,0, 189.72-67.4, 189.72-67.4l0-139.8 c0,0-64.9-52.42-199.7-52.42s-179.74,52.42-179.74,52.42l0,139.8 
	C 239.66,235.58, 302.060,302.98, 429.38,302.98z M 426.88,73.32c 88.24,0, 159.78,17.9, 159.78,39.94s-71.54,39.94-159.78,39.94
	s-159.76-17.9-159.76-39.94S 338.64,73.32, 426.88,73.32z" horiz-adv-x="842.5" data-tags="graduate, hat" />
<glyph unicode="&#xe0f1;" d="M 386.64,227.18c0,0-33.28-42.5-75.8,0c-41.24,40-71.24,0-71.24,0l-99.34-195.8
			c-2.88-10.66, 3.46-21.62, 14.12-24.48l 329.94,0 c 10.66,2.86, 17,13.8, 14.14,24.48L 386.64,227.18z M 538.78,41.4l-159.58,268.56
			l0,0.5 l-0.28,157.38l 11.020,0 c 16.52,0, 29.96,13.42, 29.96,29.98c0,16.54-13.44,29.96-29.96,29.96l-159.9,0 
			c-16.54,0-29.96-13.42-29.96-29.96c0-16.56, 13.42-29.98, 29.96-29.98l 9.64,0 l-0.32-157.42L 101.2,41.4
			C 92.64,9.42, 111.62-23.44, 143.58-32L 496.4-32 C 528.4-23.44, 547.38,9.42, 538.78,41.4z M 491.060-11.96L 148.9-11.58
			c-21.3,5.72-33.94,27.64-28.24,48.92l 138.94,272.32l 0.42,178.16l-29.96,0 c-5.5,0-9.98,4.48-9.98,10
			c0,5.5, 4.48,9.98, 9.98,9.98l 159.9,0 c 5.5,0, 9.96-4.48, 9.96-9.98c0-5.52-4.46-10-9.96-10L 360,487.82 l 0.5-177.5
			l 158.78-273.32C 525,15.66, 512.34-6.26, 491.060-11.96z M 329.6,557.76c0-11.040, 8.96-20, 20-20s 20,8.96, 20,20s-8.94,20-20,20
			S 329.6,568.82, 329.6,557.76z M 349.6,607.76c 16.56,0, 30,13.42, 30,30s-13.44,30-30,30s-30-13.42-30-30
			S 333.040,607.76, 349.6,607.76z M 269.6,557.76c 11.060,0, 20,8.96, 20,20s-8.94,20-20,20s-20-8.96-20-20S 258.54,557.76, 269.6,557.76z" data-tags="lab, beta, experiments" />
<glyph unicode="&#xe0f2;" d="M 338.040,428.64l 24.96,118.48l-126.98,0 l 25.94-118.48L 338.040,428.64 z M 261.42,406.46
			L 177.42,138.8l 127-105.5l 117.22,105.5l-82.080,267.66L 261.42,406.46 z M 376.68,369.32l 58.64-161.2l 35.16,0 l0,36.16 L 376.68,369.32z" data-tags="tie" />
<glyph unicode="&#xe0f3;" d="M 80,348l0-300 c0-11.060, 8.94-20, 20-20l 420,0 c 11.040,0, 20,8.94, 20,20L 540,348 
			c0,0-112.86,41.24-230.2,41.24C 197.24,389.24, 80,348, 80,348z M 430,205.5c0-63.52-51.48-115-115-115S 200,141.98, 200,205.5
			s 51.48,115, 115,115S 430,269.020, 430,205.5z M 520,528L 100,528 C 88.94,528, 80,519.060, 80,508l0-140 c0,0, 116.24,40, 229.8,40C 426.24,408, 540,368, 540,368L 540,508 
			C 540,519.060, 531.040,528, 520,528z M 220,448L 120,448 L 120,488 l 100,0 L 220,448 z M 369.98,448C 358.94,448, 350,456.96, 350,468s 8.94,20, 19.98,20C 381.040,488, 390,479.040, 390,468
			S 381.040,448, 369.98,448z M 430,448c-11.060,0-20,8.96-20,20s 8.94,20, 20,20c 11.040,0, 20-8.96, 20-20S 441.040,448, 430,448z M 488.76,448
			c-11.060,0-20,8.96-20,20s 8.94,20, 20,20c 11.040,0, 20-8.96, 20-20S 499.78,448, 488.76,448z M 221.24,205.5c0-51.78, 41.98-93.76, 93.76-93.76
			s 93.76,41.98, 93.76,93.76c0,0.12-32.080-32.92-93.76,3.76C 253.32,245.92, 221.24,205.62, 221.24,205.5z" data-tags="washing machine, kitchen" />
<glyph unicode="&#xe0f4;" d="M 160,68c0-11.060, 8.94-20, 20-20l 20,0 l0-20 l 40,0 l0,20 l 160,0 l0-20 l 40,0 l0,20 l 20,0 c 11.040,0, 20,8.94, 20,20l0,160 L 160,228 L 160,68 z
			 M 180,208l 20,0 l0-60 L 180,148 L 180,208 z M 460,528L 180,528 C 168.94,528, 160,519.040, 160,508l0-260 l 320,0 L 480,508 C 480,519.040, 471.060,528, 460,528z M 200,268L 180,268 l0,60 l 20,0 L 200,268 z" data-tags="refrigerator, kitchen" />
<glyph unicode="&#xe0f5;" d="M 700,48l-159.98,0 L 540.020,508 L 700,508 c 11.060,0, 20-8.94, 20-20l0-420 C 720,56.96, 711.060,48, 700,48z M 620.020,128
	l 20,0 l0,20 l-20,0 L 620.020,128 z M 620.020,168l 20,0 l0,20 l-20,0 L 620.020,168 z M 620.020,208l 20,0 l0,20 l-20,0 L 620.020,208 z M 580.020,128L 600,128 l0,20 l-19.98,0 L 580.020,128 z M 580.020,168L 600,168 l0,20 l-19.98,0 L 580.020,168 z M 580.020,208
	L 600,208 l0,20 l-19.98,0 L 580.020,208 z M 680.020,428l-100,0 l0-60 l 100,0 L 680.020,428 z M 680.020,228l-20,0 l0-20 l 20,0 L 680.020,228 z M 680.020,188l-20,0 l0-20 l 20,0 L 680.020,188 z M 680.020,148l-20,0 l0-20 l 20,0 L 680.020,148 z M0,68L0,488 
	c0,11.060, 8.96,20, 20.020,20l 500,0 l0-460 l-500,0 C 8.96,48,0,56.96,0,68z M 480.78,257.82c 11.060,0, 20,8.96, 20,20c0,11.060-8.94,20-20,20
	c-11.040,0-20-8.94-20-20C 460.78,266.78, 469.74,257.82, 480.78,257.82z M 80,148c0-11.040, 8.96-20, 20.020-20L 420,128 c 11.060,0, 20,8.96, 20,20L 440,408 
	c0,11.060-8.94,20-20,20L 100.020,428 C 88.96,428, 80,419.060, 80,408L 80,148 z" horiz-adv-x="720" data-tags="microwave, oven, kitchen" />
<glyph unicode="&#xe0f6;" d="M 268.56,447c 34.3,0, 42.88-17.14, 65.72-14.28
			c 22.86,2.86, 2.86,42.86-17.14,71.42s-65.7,14.28-100-5.72c-34.28-20-216.42-130.72-216.42-130.72L 160,367.7 
			C 160,367.72, 234.28,447, 268.56,447z M0,347.020l0-260 c0-22.080, 17.9-40, 40-40c0,0, 154.2,0, 321.66,0c 30.040,0, 57.5,93.34, 88.34,93.34
			c 26.78,0, 46.92-93.34, 73.32-93.34c 177.86,0, 336.66,0, 336.66,0c 22.1,0, 40.020,17.92, 40.020,40l0,260 L0,347.020 z M 360,167c0-33.12-26.88-60-60-60L 120,107 
			c-33.14,0-60,26.88-60,60l0,60 c0,33.14, 26.86,60, 60,60l 180,0 c 33.12,0, 60-26.86, 60-60L 360,167 z M 840,167c0-33.12-26.88-60-60-60l-180,0 
			c-33.14,0-60,26.88-60,60l0,60 c0,33.14, 26.86,60, 60,60l 180,0 c 33.12,0, 60-26.86, 60-60L 840,167 z M 565.7,432.72c 22.86-2.86, 31.42,14.28, 65.72,14.28
			c 34.28,0, 108.58-79.28, 108.58-79.28l 159.28,0 c0,0-182.14,110.72-216.42,130.72c-34.3,20-80,34.28-100,5.72S 542.86,435.58, 565.7,432.72z" horiz-adv-x="900" data-tags="3d glasses, glasses" />
<glyph unicode="&#xe0f7;" d="M 575.78,404.94c-0.12,0.3-0.28,0.6-0.42,0.92l 0.58-0.1L 575.78,404.94z
	 M 505,163.66l-93.36-3.88l-48.76,85.7l 50.46,91.12l 97.74-3.24l 41.72-85.18L 505,163.66z M 254.16,246.7l-48.98,88.62
	l 51.2,85.42l 104.42,1.6l 51.28-85.060l-50.4-90.94L 254.16,246.7z M 256.32,422.2l-38.6,66.46l 51.28,62.56l 89.5,2.86l 47.7-59.080
	l-45.66-71.2L 256.32,422.2z M 207.48,163.020l-82.7,8.080l-39.84,79.66l 34.76,80.76l 84.1,3.22l 49-88.66L 207.48,163.020z
	 M 496.22,484.82l 7.92,15.74c 30-26.020, 54.34-58.24, 71.22-94.7l-29.64,4.72L 496.22,484.82z M 407.7,495.5l-47.78,59.14
	c 1.18,1.44, 7.54,9.18, 7.66,9.3c-42.82,7.16-81.88,3.5-107.62-2.54c 0.18-0.12, 6.38-7.96, 7.66-9.58l-51.3-62.56
	L 139.82,476.38L 133,497.24L 131.82,496.88C 181.7,541.84, 247.54,569.46, 320,569.46c 69.96,0, 133.78-25.66, 183-67.9l-8.080-16.080L 407.7,495.5z
	 M 92.78,403.56l-32.16-7.58l 0.36-1.4l 31.6,7.44l 26-69.44l-34.88-81.060c-4.72,0.46-41.22,3.96-41.22,1.74
	c 6.4-53.7, 26.78-100.42, 61.88-144.12l 20.6,60.46l 82.56-8.060l 52.14-79.12l-36-58.62C 115.76,63.22, 38.54,166.46, 38.54,288
	c0,82.92, 36.060,157.2, 93.1,208.72l 6.92-21.24L 92.78,403.56z M 357.18,79.3l 42.92-60.1l 1.22,0.86l-42.66,59.66l 53,78.6
	l 93.28,3.86c 1.88-4.22, 25.78-57.96, 25.62-57.96c 39.34,46.060, 59.1,92.22, 66.24,144.84c-0.080,0-38.28-0.16-42.78-0.2
	l-41.76,85.36l 33.68,74.82l 29.72-4.74l 0.080,0.62c 16.32-35.64, 25.66-75.16, 25.66-116.94c0-155.44-126.020-281.46-281.44-281.46
	c-33.38,0-65.24,6.12-94.94,16.78l 35.94,58.5L 357.18,79.3z M 224.68,22.66l-1.24,0.76l 0.24,0.4
	c 0.46-0.18, 0.94-0.34, 1.4-0.5L 224.68,22.66z M 131.62,496.8l 0.22,0.080C 131.76,496.82, 131.7,496.76, 131.66,496.72L 131.62,496.8z
	 M 503.28,502.1l 1.28-0.64l-0.42-0.9c-0.4,0.34-0.74,0.68-1.14,1.020L 503.28,502.1z" data-tags="soccer, ball, football, sports" />
<glyph unicode="&#xe0f8;" d="M 399.020,288c0,128.94, 66.64,201.38, 66.64,201.38s-58.82,47.72-146.66,47.72
			c-87.84,0-146.68-47.76-146.68-47.76S 240.16,434.24, 240.16,288c0-141.12-68.28-201.040-68.28-201.040s 70.98-48.060, 147.12-48.060
			c 77.94,0, 146.72,47.8, 146.72,47.8S 399.020,149.2, 399.020,288z M 155.58,476.16c0,0-82.86-50.5-82.86-189c0-138.48, 83.78-183.8, 83.78-183.8
			s 61.060,45.34, 61.060,183.8C 217.56,425.66, 155.58,476.16, 155.58,476.16z M 482.42,472.42c0,0-61.96-46.76-61.96-185.26
			c0-138.48, 61.020-183.8, 61.020-183.8s 85.78,45.34, 85.78,183.8C 567.26,425.66, 482.42,472.42, 482.42,472.42z" data-tags="baseball, ball, sports" />
<glyph unicode="&#xe0f9;" d="M0,190.854L 222.479-31.625c0,0, 53.117,126.073-21.635,200.825
			C 126.911,243.132,0,190.854,0,190.854z M 596.8,173.175l-112.987-112.987l 14.124-14.124l 112.987,112.987L 596.8,173.175z M 653.294,144.927
			l-127.111,127.151c-15.601,15.561-40.933,15.561-56.494,0l-11.147-11.147l-31.164,31.164l 55.875,55.875c 15.601,15.601, 13.844,42.67-1.757,58.271
			l-68.859,68.859c-15.601,15.601-40.892,15.601-56.494,0l-50.8-49.023l-26.769,26.769l 1.817,1.797c 15.601,15.601, 15.601,40.912,0,56.514L 153.26,638.309
			c-15.601,15.601-40.892,15.601-56.514,0L 12.006,553.549c-15.601-15.601-15.601-40.912,0-56.514l 127.131-127.131c 15.601-15.601, 40.892-15.601, 56.514,0
			l 27.788,27.788l 27.527-27.767l-51.12-51.12c-15.601-15.601-9.709-102.44-9.709-102.44l 34.42-34.42c0,0, 86.819-5.893, 102.42,9.709l 44.227,44.209
			l 31.164-31.164l-17.46-17.46c-15.601-15.601-15.601-40.892,0-56.494l 127.151-127.111c 15.601-15.601, 40.892-15.601, 56.494,0l 84.74,84.74
			C 668.895,104.036, 668.895,129.326, 653.294,144.927z M 26.129,539.425l 84.76,84.76c 7.791,7.811, 20.436,7.811, 28.246,0L 26.129,511.179
			C 18.319,518.969, 18.319,531.634, 26.129,539.425z M 40.252,497.055l 113.008,113.008l 14.124-14.124L 54.376,482.931L 40.252,497.055z M 68.5,468.808l 113.008,113.008
			L 195.63,567.671L 82.643,454.685L 68.5,468.808z M 96.766,440.541L 209.754,553.549l 14.144-14.124L 110.89,426.418L 96.766,440.541z M 125.014,412.294l 113.008,113.008
			l 14.124-14.124l-113.008-113.008L 125.014,412.294z M 181.507,384.047c-7.791-7.811-20.436-7.811-28.246,0l 113.008,113.008
			c 7.811-7.811, 7.811-20.456,0-28.246L 181.507,384.047z M 237.881,278.051l-10.588,10.608l 146.029,146.029l 10.608-10.588L 237.881,278.051z M 399.033,173.175
			l 84.78,84.78c 7.811,7.771, 20.436,7.771, 28.246,0l-113.028-113.028C 391.221,152.739, 391.221,165.364, 399.033,173.175z M 639.17,102.558
			l-84.74-84.74c-7.811-7.811-20.436-7.811-28.246,0l-96.886,96.866l 12.126-12.106l 112.987,112.987l-14.124,14.124l-113.028-112.987l-14.124,14.124
			l 113.028,113.028l 112.987-113.028C 646.981,122.994, 646.981,110.349, 639.17,102.558z M 625.046,144.927l-112.987-112.987l 14.124-14.124l 112.987,112.987
			L 625.046,144.927z M 568.553,201.421l-112.987-112.987l 14.124-14.124l 112.987,112.987L 568.553,201.421z" horiz-adv-x="665" data-tags="satellite, broadcast" />
<glyph unicode="&#xe0fa;" d="M 319.98,337.38c-90.86,0-164.54-73.68-164.54-164.54s 73.68-164.54, 164.54-164.54c 90.88,0, 164.54,73.68, 164.54,164.54
			S 410.86,337.38, 319.98,337.38z M 319.98,32.34c-76.88,0-139.22,62.34-139.22,139.26c0,76.88, 62.34,139.2, 139.22,139.2
			c 76.92,0, 139.22-62.32, 139.22-139.2C 459.2,94.68, 396.9,32.34, 319.98,32.34z M 402.72,469l 56.48,98.7L 180.76,567.7 l 57.34-98.7L 402.72,469 z
			 M 432.26,300.98l 100.84,165.96l-67.62,97.88l-127-223.3C 394.2,336.86, 432.26,300.98, 432.26,300.98z M 301.060,342.76L 174.5,564.82
			l-67.6-97.88l 97.88-168.88C 204.76,298.060, 240.3,334.7, 301.060,342.76z M 297.36,209.52c-7.66-5.98-14.72-10-21.24-12.14l0-22.62 
			c 12.38,4.060, 23.14,10.36, 32.26,18.9l0-94.22 l 25,0 l0,130.98 l-20.28,0 C 310.26,222.5, 305.020,215.5, 297.36,209.52z" data-tags="medal, first, win" />
<glyph unicode="&#xe0fb;" d="M 183.86,207.26c-25,0-28.32,11.68-28.32,11.68l-97.5-191.6l 78.18,8.76
			l 43.24-65c0,0, 90,187.86, 90,186.6C 222.86,158.82, 241.36,206, 183.86,207.26z M 403.64,186.7c 12.14,20.4, 30.080,30.74, 53.82,31.060
			c 23.72,0.32, 35.74,12.34, 36.060,36.080c 0.32,23.72, 10.66,41.66, 31.060,53.78c 20.4,12.12, 24.8,28.56, 13.2,49.26s-11.6,41.42,0,62.12
			s 7.18,37.12-13.2,49.26s-30.74,30.060-31.060,53.8c-0.32,23.72-12.34,35.74-36.060,36.060c-23.76,0.32-41.68,10.66-53.82,31.060
			c-12.1,20.4-28.56,24.8-49.26,13.2s-41.4-11.6-62.1,0s-37.12,7.18-49.26-13.2c-12.14-20.4-30.060-30.74-53.8-31.060
			C 165.5,557.78, 153.48,545.76, 153.16,522.040c-0.32-23.74-10.66-41.66-31.060-53.8s-24.8-28.56-13.2-49.26c 11.6-20.7, 11.6-41.42,0-62.12
			c-11.6-20.7-7.18-37.12, 13.2-49.26c 20.4-12.14, 30.74-30.080, 31.060-53.78c 0.32-23.74, 12.34-35.76, 36.060-36.080
			c 23.74-0.32, 41.66-10.66, 53.8-31.060c 12.12-20.4, 28.56-24.78, 49.26-13.2s 41.4,11.58, 62.1,0S 391.52,166.3, 403.64,186.7z
			 M 350.36,287.92l-35.62,0 L 314.74,422.44 c-13.020-12.18-28.4-21.18-46.1-27.020L 268.64,427.76 c 9.3,3.040, 19.42,8.8, 30.34,17.3
			s 18.4,18.4, 22.46,29.72l 28.92,0 L 350.36,287.92 z M 483.2,211.44c-71.24-7.5-56.76-25.12-73-38.86c-18.76-20-42.14-16.14-42.14-16.14
			l 110-189.1l 27,70l 76.92-10L 483.2,211.44z" data-tags="medal, first, win" />
<glyph unicode="&#xe0fc;" d="M 538.34,237.64L 269.64,506.34c-11.72,11.72-11.72,30.72,0,42.42
	c 11.72,11.72, 30.7,11.72, 42.42,0l 63.64-63.64l 77.8,77.78c 11.72,11.72, 30.7,11.72, 42.42,0c 11.72-11.7, 11.72-30.7,0-42.42
	l-77.78-77.78l 56.56-56.56l 77.78,77.78c 11.72,11.72, 30.72,11.72, 42.44,0c 11.7-11.72, 11.7-30.7,0-42.42l-77.8-77.8l 63.66-63.64
	c 11.7-11.72, 11.7-30.7,0-42.42C 569.060,225.92, 550.060,225.92, 538.34,237.64z M 418.14,131.58c-25.94-25.92-141.42-28.28-141.42-28.28
	l-141.42,141.42c0,0, 2.36,115.48, 28.28,141.42c 25.94,25.92, 99,98.98, 99,98.98l 254.56-254.56
	C 517.12,230.58, 444.060,157.52, 418.14,131.58z M 135.3,216.44l 113.14-113.14c 7.82-7.82, 7.82-20.46,0-28.28s-20.48-7.82-28.3,0
	l-113.12,113.14c-7.82,7.82-7.82,20.46,0,28.28S 127.48,224.24, 135.3,216.44z M 191.86,75.020c0,0-9.5-9.52-21.22-21.22
	c-11.72-11.72-30.7-11.72-42.42,0l-7.080,7.080l-56.58-56.56l-28.28,28.28l 56.58,56.56L 85.8,96.22
	c-11.72,11.72-11.72,30.72,0,42.44s 22.38,20.020, 22.38,20.020L 191.86,75.020z" data-tags="cord, power, cable" />
<glyph unicode="&#xe0fd;" d="M 572.16,383.080L 320,555.72L 67.84,383.080L 320,210.46L 572.16,383.080z M 320,171.94
			L 97.42,318.7L 67.84,288L 320,115.38L 572.16,288l-29.98,31.36L 320,171.94z M 320,76.82L 97.42,223.58l-29.58-30.7L 320,20.26
			l 252.16,172.62l-29.98,31.36L 320,76.82z" data-tags="stack" />
<glyph unicode="&#xe0fe;" d="M 320,468.8L 357.46,408l-74.9,0 L 320,468.8z M 495.98,182.72l-74.5,0 l 37.060,60.36
	L 495.98,182.72z M 144.040,182.72l 37.44,60.36l 37.060-60.36L 144.040,182.72 z M 239.88,148L 320,18l 80.14,130L 560,148 l-80.12,129.8L 560,408l-159.86,0 L 320,538
	L 239.88,408L 80,408 l 80.14-130.2L 80,148L 239.88,148 z M 495.98,373.28l-37.44-60.7l-37.060,60.7L 495.98,373.28 z M 320,87.22L 282.56,148l 74.9,0 L 320,87.22z
	 M 202.82,277.8l 58.4,95.48l 117.58,0 l 58.42-95.48l-58.78-95.080l-117.2,0 L 202.82,277.8z M 144.040,373.28l 74.5,0 l-37.060-60.7L 144.040,373.28z" data-tags="david star" />
<glyph unicode="&#xe0ff;" d="M 119.58,388.52l0-100.42 l 140.82,0 l0-239.8 l 100.84,0 l0,239.8 l 139.16,0 l0,100.42 l-139.16,0 L 361.24,527.68 l-100.84,0 l0-139.16 L 119.58,388.52 z" data-tags="cross" />
<glyph unicode="&#xe100;" d="M 383.64,81.44c-112.7,0-205.2,93.12-205.2,206.56c0,114.3, 90.78,206.56, 207.46,206.56c 40,0, 80-16.12, 80-16.12
	c-45.54,32-92.9,47.98-142.080,47.98c-66.84,0-123.6-23.14-170.32-69.44S 83.44,354.36, 83.44,288c0-65.94, 23.26-122.16, 69.76-168.68
	s 102.72-69.76, 168.68-69.76c 85.24,0, 137.44,44.020, 144.020,48.32C 465.9,97.88, 423.64,81.44, 383.64,81.44z M 431.060,274.8l-21.28-66.080
	l 56.14,40.6l 55.82-40.6l-21.28,66.080l 56.14,40.4L 487.2,315.2 l-21.3,65.96l-21.6-65.96l-69.38,0 L 431.060,274.8z" data-tags="moon and star" />
<glyph unicode="&#xe101;" d="M 261.4,503.96L 145.48,535.020C 134.82,537.88, 123.86,531.54, 121,520.88L 1.94,76.56
			c-2.86-10.68, 3.48-21.64, 14.16-24.52L 132,20.98c 10.66-2.86, 21.64,3.48, 24.5,14.14l 119.060,444.34
			C 278.4,490.12, 272.080,501.1, 261.4,503.96z M 155.6,109.14c-8.58-32.020-41.46-51-73.48-42.42s-51,41.46-42.42,73.48
			s 41.46,51.020, 73.48,42.42C 145.2,174.040, 164.18,141.14, 155.6,109.14z M 178.58,194.86l-115.9,31.060L 124.78,457.74l 115.92-31.080
			L 178.58,194.86z M 378.76,148c-16.58,0-30-13.44-30-30s 13.42-30, 30-30c 16.56,0, 30,13.44, 30,30S 395.32,148, 378.76,148z
			 M 216.22,412.54L 138.92,433.24L 133.76,413.92l 77.28-20.7L 216.22,412.54z M 200.66,354.58l 5.2,19.32L 128.58,394.6L 123.4,375.28
			L 200.66,354.58z M 105.1,152.44c-16,4.3-32.46-5.22-36.74-21.22c-4.3-16.020, 5.2-32.46, 21.22-36.74
			c 16-4.3, 32.46,5.2, 36.74,21.22C 130.6,131.7, 121.1,148.14, 105.1,152.44z M 598.76,428l-80,0 l0-20 l 80,0 L 598.76,428 z M 598.76,348l-80,0 l0-20 l 80,0 L 598.76,348 z M 598.76,388
			l-80,0 l0-20 l 80,0 L 598.76,388 z M 558.76,148c-16.58,0-30-13.44-30-30s 13.42-30, 30-30c 16.56,0, 30,13.44, 30,30S 575.32,148, 558.76,148z M 618.76,528
			l-120,0 c-11.060,0-20-8.94-20-20l0-460 c0-11.040, 8.94-20, 20-20l 120,0 c 11.040,0, 20,8.96, 20,20L 638.76,508 C 638.76,519.060, 629.78,528, 618.76,528z M 558.76,58
			c-33.14,0-60,26.88-60,60c0,33.14, 26.86,60, 60,60c 33.12,0, 60-26.86, 60-60C 618.76,84.88, 591.88,58, 558.76,58z M 618.76,208l-120,0 L 498.76,448 l 120,0 L 618.76,208 z
			 M 418.76,428l-80,0 l0-20 l 80,0 L 418.76,428 z M 418.76,348l-80,0 l0-20 l 80,0 L 418.76,348 z M 438.76,528l-120,0 c-11.060,0-20-8.94-20-20l0-460 c0-11.040, 8.94-20, 20-20l 120,0 c 11.040,0, 20,8.96, 20,20L 458.76,508 
			C 458.76,519.060, 449.78,528, 438.76,528z M 378.76,59.24c-33.14,0-60,26.88-60,60c0,33.14, 26.86,60, 60,60c 33.12,0, 60-26.86, 60-60
			C 438.76,86.12, 411.88,59.24, 378.76,59.24z M 438.76,208l-120,0 L 318.76,448 l 120,0 L 438.76,208 z M 418.76,388l-80,0 l0-20 l 80,0 L 418.76,388 z M 113.040,336.66l 77.26-20.7l 5.2,19.32
			l-77.28,20.7L 113.040,336.66z" data-tags="archive" />
<glyph unicode="&#xe102;" d="M 351.4,245.64c-31.96,26.12-52.36,65.84-52.36,110.34
	c0,22.36, 5.6,43.24, 14.78,62.080l-21.96,21.94l-133.4-133.42c 24.8-19.52, 22.3-38.6-6.72-57.2l 178.22-178.2l 87.34,0 
	c 11.24,0, 20.36-9.12, 20.36-20.36l0-20.36 l-95.36,0 l-0.22-0.22l-0.22,0.22L 193.5,30.46 L 193.5,50.8 c0,11.24, 9.12,20.36, 20.36,20.36l 87.34,0 
	l-168.12,168.1c-33.22-14.24-49.62-0.48-48.92,41.8c 0.76,44.98, 19.82,56.98, 56.78,36.74l 136.58,136.58L 264,467.88
	c-7.94,7.92-7.94,20.82,0,28.76l 43.16,43.16c 7.94,7.94, 20.84,7.94, 28.78,0l 52-52.040c 16.56,6.74, 34.58,10.6, 53.56,10.6
	c 46.84,0, 88.44-20.1, 114.38-55.040C 556.76,443.1, 352.14,245.32, 351.4,245.64z M 508.86,372.92c0,0, 34.34-43.22,0-77.56
	s-77.14,0.42-77.14,0.42L 508.86,372.92z" data-tags="lamp, light" />
<glyph unicode="&#xe103;" d="M 536.8,271.52c0,0-22.38,36.66-47.26,36.66c-24.84,0-50.94-37.9-50.94-37.9
	s-27.34,37.86-49.72,37.86c-18.94,0-41.24-26.040-47.7-34.080l0-144.8 c0-14.5-1.48-26.76-4.46-36.88
	c-2.96-10.080-7.36-18.28-13.18-24.6c-5.8-6.32-13.040-10.94-21.72-13.78c-8.66-2.86-18.7-4.26-30.1-4.26
	c-10.38,0-19.66,1.56-27.88,4.68c-8.22,3.16-15.14,7.62-20.78,13.44s-9.98,12.82-13,21.060
	c-3,8.2-4.54,17.38-4.54,27.5l0,13.98 l 39.6,0 c0-13.12-0.1-30.32, 4.68-37c 4.78-6.64, 12.080-10, 21.9-10
	c 6.62,0, 16.080,3.28, 16.080,3.28s 7.24,5.2, 9.42,9.14c 2.16,3.9, 4.36,14.18, 4.36,14.18s 1.12,11.6, 1.12,18.24l0,148.12 
	c-8.86,10.020-30.6,32.44-48.020,32.44c-22.36,0-53.44-37.28-53.44-37.28S 171.4,308.8, 151.5,308.8c-19.88,0-48.46-37.28-48.46-37.28
	s-8.72,195.12, 188.9,215l 28.6,39.76l 27.36-39.76C 551.68,474.1, 536.8,271.52, 536.8,271.52z" data-tags="umbrella, rain, weather" />
<glyph unicode="&#xe104;" d="M 483.2,423.86c 7.56-7.54, 7.56-19.78,0-27.34
	c-7.56-7.54-13.7-13.68-13.7-13.68l 13.7-13.68c 15.1-15.1, 15.1-39.58,0-54.7L 278.1,109.4c-15.12-15.12-39.6-15.12-54.7,0
	l-13.68,13.68l-54.68-54.72l 27.34-27.34c 7.56-7.54, 7.56-19.76,0-27.34c-7.56-7.54-19.8-7.54-27.34,0l-109.4,109.42
	c-7.54,7.54-7.54,19.76,0,27.34c 7.56,7.54, 19.8,7.54, 27.34,0l 27.34-27.34l 54.7,54.68l-13.68,13.68
	c-15.12,15.080-15.12,39.58,0,54.68L 346.46,451.22c 15.12,15.12, 39.58,15.12, 54.68,0l 13.68-13.68c0,0, 6.14,6.14, 13.68,13.68
	c 7.56,7.56, 19.8,7.56, 27.34,0l 6.84-6.84l 109.4,109.4l0-27.34 l-95.72-95.72L 483.2,423.86z M 387.48,437.54
	c-7.54,7.56-19.78,7.56-27.34,0l-41.020-41.020l 27.34-27.34l-13.68-13.68l-27.34,27.34l-41.020-41.020l 27.34-27.36l-13.68-13.68
	l-27.36,27.36l-13.68-13.68l 54.7-54.68l-13.68-13.68l-54.7,54.68L 182.38,259.8l 54.68-54.68l-13.68-13.68l-54.68,54.68l-13.68-13.68
	c-7.56-7.54-7.56-19.8,0-27.34l 82.040-82.040c 7.56-7.58, 19.8-7.58, 27.36,0l 205.080,205.080c 7.58,7.54, 7.58,19.78,0,27.34
	L 387.48,437.54z M 332.8,410.2l 13.68,13.68l 54.68-54.68l-13.68-13.68L 332.8,410.2z M 332.8,300.82l-54.68,54.7l 13.68,13.68l 54.68-54.7
	L 332.8,300.82z M 196.060,273.46l 13.68,13.68l 27.34-27.34l-13.68-13.68L 196.060,273.46z M 598.84,420.28c0-14.5-11.76-26.24-26.24-26.24
	c-14.52,0-26.26,11.76-26.26,26.24c0,14.52, 26.26,54.16, 26.26,54.16S 598.84,434.78, 598.84,420.28z" data-tags="injection, medicine" />
<glyph unicode="&#xe105;" d="M 379.18,249.74l0,18.34 l 61.26,0 l0-18.34 L 379.18,249.74 z M 379.18,308.5l 61.26,0 l0-19.58 l-61.26,0 
	L 379.18,308.5 z M 379.18,347.7l 61.26,0 l0-19.6 l-61.26,0 L 379.18,347.7 z M 379.18,388.14l 61.26,0 l0-19.58 l-61.26,1.24L 379.18,388.14 z M 379.18,429.82l 61.26,0 l0-20.84 
	l-61.26,0 L 379.18,429.82 z M 379.18,469l 61.26,0 L 440.44,449.4 l-61.26,0 L 379.18,469 z M 414.66,124.94c0-64.92-52.64-117.56-117.56-117.56s-117.56,52.64-117.56,117.56
	c0,44.52, 23.5,83.22, 59.98,103.18L 239.52,489.86 c0,32.46, 27.56,58.76, 60.020,58.76s 58.78-26.3, 58.78-58.76l0-264.7 
	C 392.080,204.48, 414.66,167.4, 414.66,124.94z M 338.74,213.3L 338.74,489.86 c0,21.64-17.54,39.18-39.18,39.18s-39.18-17.54-39.18-39.18l0-274.22 
	c-35.88-14.56-61.24-49.6-61.24-90.7c0-54.1, 43.86-97.96, 97.96-97.96c 54.1,0, 97.94,43.86, 97.94,97.96
	C 395.060,164.1, 371.94,197.6, 338.74,213.3z M 297.1,46.56c-43.3,0-78.38,35.1-78.38,78.38c0,37.38, 26.22,68.52, 61.24,76.36
	l0,186.84 l 39.2,0 l0-188.36 c 32.46-9.58, 56.32-39.28, 56.32-74.84C 375.48,81.66, 340.4,46.56, 297.1,46.56z" data-tags="thermometer, temprature" />
<glyph unicode="&#xe106;" d="M 426.1,419.9c 10.66,2.88, 17,13.82, 14.14,24.5
		c-2.86,10.68-13.82,17.020-24.5,14.14l-201.82-62.1c-10.68-2.86-17-13.82-14.16-24.5c 2.86-10.66, 13.82-17.020, 24.5-14.14
		l 16.66,5.12L 260,328.16l-20,0 c-22.080,0-40-17.92-40-40l0-83.34 l 40-56.66l 160,0 l 40,56.66l0,83.34 c0,22.080-17.92,40-40,40l-20,0 l 40.3,89.96L 426.1,419.9z
		 M 340,328.16l-40,0 l-24.86,45.28l 98.76,30.4L 340,328.16zM 415.74,518.52L 213.92,456.42c-10.68-2.86-17-13.82-14.16-24.5
		c 2.86-10.66, 13.82-17.020, 24.5-14.14l 201.82,62.1c 10.66,2.88, 17,13.82, 14.14,24.5S 426.4,521.4, 415.74,518.52zM 224.26,477.78l 201.82,62.1c 10.66,2.88, 17,13.82, 14.14,24.5
		c-2.86,10.68-13.82,17.020-24.5,14.14L 213.92,516.42c-10.68-2.86-17-13.82-14.16-24.5C 202.62,481.26, 213.6,474.92, 224.26,477.78zM 390,128.16l-140,0 c-5.52,0-10-4.48-10-10s 4.48-10, 10-10l 140,0 
		c 5.5,0, 10,4.48, 10,10S 395.5,128.16, 390,128.16zM 390,88.16l-140,0 c-5.52,0-10-4.48-10-10s 4.48-10, 10-10l 140,0 
		c 5.5,0, 10,4.48, 10,10S 395.5,88.16, 390,88.16zM 390,48.16l-140,0 c-5.52,0-10-4.48-10-10s 4.48-10, 10-10l 140,0 
		c 5.5,0, 10,4.48, 10,10S 395.5,48.16, 390,48.16zM 290,8.16c-2.020-16.44, 13.44-30, 30-30s 30,13.44, 30,30
		C 350,7.3, 290,6.040, 290,8.16zM 225.42,536.88l 133.6,41.86c 10.54,3.3, 16.4,14.54, 13.1,25.060
		c-3.3,10.54-14.52,16.42-25.060,13.12l-133.6-41.86c-10.54-3.3-16.4-14.54-13.1-25.080C 203.66,539.46, 214.88,533.58, 225.42,536.88z" data-tags="lamp, light" />
<glyph unicode="&#xe107;" d="M 354.94,327.66c-25-11.24-80.44,16.3-80.44,16.3
			c-64.96,38.94, 24.4-121.46, 24.4-121.46s 1.86-50.060, 13.1-56.3C 405.74,297.46, 379.94,338.92, 354.94,327.66z M 321.2,203.2
			c-7.58,0-39.44,95.58-35.68,115.58c 25.020-2.5, 48.18-11.94, 61.94-4.44C 386.2,331.9, 329.94,203.2, 321.2,203.2z M 399.040,129.060
			c 2.3,146.1, 80.92,202.32, 80.92,289.32c0,74.24-50.8,169-157.4,169c-106.58,0-162.52-90.66-162.52-169.68
			c0-88.72, 79.86-144.48, 79.86-289.56l 80.86,0 C 320.76,128.14, 396.72,129.060, 399.040,129.060z M 256.18,147.6
			c0,135.42-77.36,187.46-77.36,270.26c0,73.76, 50.2,151.12, 143.46,151.12s 138.96-81.2, 138.96-150.48c0-81.2-76.28-134.84-78.32-271.2
			c-2.040,0-62.22,0.32-62.22,0.32L 256.18,147.62 z M 390.1,107.72l-140,0 c-5.52,0-10-4.48-10-10s 4.48-10, 10-10l 140,0 
			c 5.5,0, 10,4.48, 10,10S 395.6,107.72, 390.1,107.72z M 390.1,67.72l-140,0 c-5.52,0-10-4.48-10-10s 4.48-10, 10-10l 140,0 
			c 5.5,0, 10,4.48, 10,10S 395.6,67.72, 390.1,67.72z M 259.94,27.14c0,0,0-6.68,0-18s 8.88-20.5, 19.84-20.5l 80.62,0 
			c 10.98,0, 19.84,9.18, 19.84,20.5s-1.24,18-1.24,18L 259.94,27.14 z" data-tags="lamp, light" />
<glyph unicode="&#xe108;" d="M 309.040,547.88L 41.8,432.74l 267.5-114.24L 579.56,433L 309.040,547.88z M 320,304.12
			l0-276 l 259.9,123.38L 579.9,414.52 L 320,304.12z M 40.1,151.5l 260.78-123.38l0,276 L 40.1,414.52L 40.1,151.5 z" data-tags="cube, 3d, box" />
<glyph unicode="&#xe109;" d="M 42.060,366.96l 267.96-332.58l-107.46,332.58L 42.060,366.96 z M 231.68,366.96l 94.9-333.26l 81.66,333.26L 231.68,366.96 z M 341.020,34.38
			l 257.96,332.58l-159.26,0 L 341.020,34.38z M 599.58,388.72l-77.34,132.24l-77.38-132.24L 599.58,388.72 z M 497.92,528.54L 343.2,528.54 l 77.34-136.78
			L 497.92,528.54z M 396.76,388.72l-77.34,132.24l-77.36-132.24L 396.76,388.72 z M 296.78,528.54L 142.080,528.54 l 77.36-136.78L 296.78,528.54z M 117.78,520.96
			l-77.34-132.24l 154.7,0 L 117.78,520.96z" data-tags="diamond, gem" />
<glyph unicode="&#xe10a;" d="M 40.1,151.5l 260.78-123.38l0,276 L 40.1,414.52L 40.1,151.5 z M 120.12,312.18
			l 100.52-46.74l-0.58-36.84l-100.5,46.72L 120.12,312.18z M 320,304.12l0-276 l 259.88,123.38L 579.88,414.52 L 320,304.12z M 309.060,547.88L 41.8,432.74
			l 267.5-114.24L 579.58,433L 309.060,547.88z" data-tags="box, package" />
<glyph unicode="&#xe10b;" d="M 280.34,421.96l 78.68,0 L 359.020,451.48 l-78.68,0 L 280.34,421.96 z M 358.44,412.14l-78.1,0 
			c0,0-128.5-126.66-128.5-250.84c0-131.58, 134.64-142.040, 134.64-142.040s 40.16-6.66, 65.14,0c0,0, 136.52,16, 136.52,141.4
			C 488.16,286.1, 358.44,412.14, 358.44,412.14z M 364.22,145.54c-3.16-6.4-7.42-11.76-12.86-16.040
			c-5.42-4.3-11.76-7.52-18.98-9.68c-0.92-0.28-1.92-0.38-2.86-0.62l0-21.84 l-19.66,0 l0,19.28 
			c-0.24-0.020-0.48-0.060-0.72-0.060c-5.58,0-10.76,0.44-15.56,1.34c-4.78,0.92-9,2.020-12.68,3.28
			c-3.68,1.28-6.74,2.62-9.18,4.020c-2.46,1.4-4.24,2.64-5.32,3.72c-1.1,1.080-1.86,2.64-2.32,4.68
			c-0.44,2.060-0.68,4.98-0.68,8.82c0,2.58, 0.080,4.74, 0.26,6.5s 0.42,3.16, 0.82,4.26
			c 0.38,1.1, 0.86,1.86, 1.48,2.32c 0.62,0.44, 1.36,0.68, 2.18,0.68c 1.18,0, 2.82-0.68, 4.94-2.060
			c 2.12-1.38, 4.84-2.9, 8.18-4.56c 3.34-1.68, 7.3-3.18, 11.94-4.58c 4.62-1.36, 9.98-2.060, 16.060-2.060
			c 4,0, 7.58,0.48, 10.74,1.44s 5.86,2.3, 8.060,4.060c 2.22,1.76, 3.9,3.92, 5.060,6.5c 1.18,2.6, 1.76,5.46, 1.76,8.66
			c0,3.66-1.020,6.8-3,9.44c-2,2.62-4.62,4.94-7.82,7c-3.2,2.040-6.84,3.94-10.92,5.74s-8.3,3.7-12.62,5.68
			c-4.34,2-8.54,4.26-12.62,6.82c-4.080,2.54-7.74,5.56-10.94,9.1s-5.8,7.74-7.82,12.56
			c-2,4.82-2.98,10.62-2.98,17.36c0,7.76, 1.44,14.56, 4.3,20.42c 2.88,5.86, 6.76,10.74, 11.62,14.6
			c 4.88,3.86, 10.62,6.76, 17.24,8.68c 3.4,0.98, 6.92,1.7, 10.52,2.16l0,20.7 l 19.66,0 l0-20.68 c 0.8-0.1, 1.58-0.060, 2.36-0.18
			c 3.82-0.58, 7.42-1.36, 10.74-2.36c 3.32-0.98, 6.28-2.1, 8.86-3.34s 4.3-2.26, 5.12-3.1
			c 0.86-0.82, 1.4-1.52, 1.72-2.1c 0.28-0.58, 0.5-1.36, 0.74-2.32c 0.2-0.96, 0.36-2.16, 0.42-3.64
			c 0.080-1.44, 0.12-3.26, 0.12-5.42c0-2.42-0.080-4.48-0.2-6.16c-0.12-1.66-0.32-3.040-0.62-4.12
			c-0.28-1.1-0.7-1.88-1.24-2.38s-1.24-0.74-2.18-0.74c-0.9,0-2.38,0.56-4.38,1.72
			c-2,1.18-4.46,2.42-7.34,3.78c-2.92,1.36-6.28,2.6-10.12,3.74c-3.86,1.12-8.060,1.66-12.62,1.66
			c-3.6,0-6.72-0.42-9.38-1.3c-2.68-0.86-4.9-2.080-6.7-3.6c-1.78-1.54-3.12-3.4-3.98-5.54
			c-0.88-2.14-1.3-4.44-1.3-6.84c0-3.6, 0.98-6.7, 2.92-9.32s 4.58-4.96, 7.88-7
			c 3.28-2.060, 7.020-3.96, 11.2-5.74c 4.16-1.8, 8.4-3.7, 12.74-5.68c 4.34-2.020, 8.56-4.28, 12.74-6.82
			s 7.9-5.58, 11.14-9.12s 5.86-7.7, 7.86-12.48c 2-4.8, 3-10.42, 3-16.94C 368.98,159.4, 367.38,151.96, 364.22,145.54z
			 M 357.82,461.32l 39.96,98.38c0,0-25.2-20.92-39.96-20.92s-38.14,20.3-38.14,20.3s-25.2-20.3-39.96-20.3
			c-14.74,0-38.74,19.68-38.74,19.68l 40.58-97.14L 357.82,461.32 z" data-tags="money bag, sack dollar, bag" />
<glyph unicode="&#xe10c;" d="M 357.82,411.9l-75.8,0 c0,0-123.4-96.62-123.4-242.16s 129.72-146.94, 129.72-146.94
			s 33.76-2.5, 62.5,0c0-1.24, 130.5,17.3, 130.5,147.060C 481.36,299.58, 357.82,411.9, 357.82,411.9z M 282.020,421.4l 75.94,0 L 357.96,449.88 l-75.94,0 
			L 282.020,421.4 z M 356.8,459.36l 38.56,94.94c0,0-24.34-20.18-38.56-20.18c-14.26,0-36.8,19.58-36.8,19.58s-24.32-19.58-38.56-19.58
			s-37.38,18.98-37.38,18.98l 39.16-93.76L 356.8,459.34 z" data-tags="bag, sack, money" />
<glyph unicode="&#xe10d;" d="M 460.46,27.88l0,40.58 L 440.2,68.46 l0-40.58 l-20.28,0 l0,40.58 L 399.6,68.46 l0-40.58 l-19.020,0 l0,60.86 
	l-20.28,0 l0-60.86 l-20.28,0 l0,40.58 l-20.28,0 l0-40.58 l-19.020,0 l0,40.58 l-20.28,0 l0-40.58 l-20.3,0 l0,60.86 l-20.28,0 l0-60.86 l-20.28,0 l0,40.58 L 200.6,68.46 l0-40.58 L 180.32,27.88 
	l0,40.58 L 160.020,68.46 l0-40.58 L 139.76,27.88 l0,60.86 L 120.74,88.74 l0-60.86 L 59.9,27.88 L 59.9,528.1 l 500.22-500.22L 460.46,27.88 z M 139.76,336.32l0-227.3 l 227.28,0 L 139.76,336.32z" data-tags="ruler, measure, math" />
<glyph unicode="&#xe10e;" d="M0,148.22L0,407.78 l 39.78,0 l0-119.42 l 39.4,0 l0,119.42 l 41.46,0 l0-39.8 L 159.6,367.98 l0,39.8 l 40.24,0 l0-79.6 l 39.8,0 
	l0,79.6 l 40.62,0 l0-38.96 l 38.98,0 l0,38.96 l 41.46,0 l0-79.6 l 38.96,0 l0,79.6 l 40.64,0 l0-119.42 l 38.12,0 l0,119.42 l 41.9,0 l0-38.96 l 39.4,0 l0,38.96 l 41.060,0 l0-79.6 l 37.72,0 l0,79.6 
	l 41.9,0 l0-38.96 l 38.54,0 l0,38.96 L 760,407.78 l0-79.6 l 39.4,0 l0,79.6 l 40.64,0 l0-259.58 L0,148.2 z" data-tags="ruler, measure, length" />
<glyph unicode="&#xe10f;" d="M 60,528l0-500 l 500,0 L 560,528 L 60,528 z M 220,48L 80,48 L 80,388 l 140,0 L 220,48 z M 540,48L 240,48 L 240,388 l 300,0 L 540,48 z M 540,408L 80,408 L 80,508 l 460,0 L 540,408 z" data-tags="layout" />
<glyph unicode="&#xe110;" d="M 60,528l0-500 l 500,0 L 560,528 L 60,528 z M 380,48L 80,48 L 80,388 l 300,0 L 380,48 z M 540,48l-140,0 L 400,388 l 140,0 L 540,48 z M 540,408L 80,408 L 80,508 l 460,0 L 540,408 z" data-tags="layout" />
<glyph unicode="&#xe111;" d="M 60,528l0-500 l 500,0 L 560,528 L 60,528 z M 220,48L 80,48 L 80,508 l 140,0 L 220,48 z M 540,48L 240,48 L 240,268 l 300,0 L 540,48 z M 540,288L 240,288 L 240,508 l 300,0 L 540,288 z" data-tags="layout" />
<glyph unicode="&#xe112;" d="M 60,528l0-500 l 500,0 L 560,528 L 60,528 z M 220,48L 80,48 L 80,388 l 140,0 L 220,48 z M 540,48L 240,48 l0,160 l 300,0 L 540,48 z M 540,228L 240,228 l0,160 l 300,0 L 540,228 z
			 M 540,408L 80,408 L 80,508 l 460,0 L 540,408 z" data-tags="layout" />
<glyph unicode="&#xe113;" d="M 60,528l0-500 l 500,0 L 560,528 L 60,528 z M 300,48L 80,48 L 80,388 l 220,0 L 300,48 z M 540,48L 320,48 L 320,388 l 220,0 L 540,48 z M 540,408L 80,408 L 80,508 l 460,0 L 540,408 z" data-tags="layout" />
<glyph unicode="&#xe114;" d="M 60,528l0-500 l 500,0 L 560,528 L 60,528 z M 158.76,48L 80,48 L 80,388 l 78.76,0 L 158.76,48 z M 440,48L 180,48 L 180,388 l 260,0 L 440,48 z M 540,48l-80,0 L 460,388 l 80,0 L 540,48 
			z M 540,408L 80,408 L 80,508 l 460,0 L 540,408 z" data-tags="layout" />
<glyph unicode="&#xe115;" d="M 547.86,554.72l-72.92-44.36l-0.52-40.1l-160.96-160.56l-22.060,22.060c-7.82,7.82-20.48,7.82-28.3,0
	c-7.8-7.8-15.020-13.24-15.020-13.24l 8.2-8.2c-0.080,0.080-0.18,0.16-0.26,0.24c-39.76-39.74-65.4-51.24-65.4-51.24
	l-124.76-126.42c-7.82-7.84-7.82-20.44,0-28.28l 70.72-70.72c 7.8-7.82, 20.46-7.82, 28.28,0l 124.74,126.42
	c0,0, 11.48,25.6, 51.28,65.42l 7.080-7.080c0,0, 6.3,6.32, 14.14,14.14c 7.82,7.82, 7.82,20.46,0,28.28l-21.44,21.44l 160.36,161.14
	l 40.94,0.020l 44.060,72.88L 547.86,554.72z M 79.58,119.96l 126.96,126.96l 14.14-14.12l-126.96-126.98L 79.58,119.96z M 107.86,90.78
	l 126.96,127l 14.14-14.18L 122,76.64L 107.86,90.78z M 150.28,48.36l-14.14,14.14l 126.96,126.98l 14.16-14.14L 150.28,48.36z" data-tags="screwdriver, fix" />
<glyph unicode="&#xe116;" d="M 520,348L 320,348 l0-40 l-40,0 l0,60 l 40,0 l 200,0 L 520,488 l-20,0 l0-60 c0-11.040-8.96-20-20-20L 120,408 c-11.060,0-20,8.96-20,20L 100,508 
	c0,11.060, 8.94,20, 20,20l 360,0 c 11.040,0, 20-8.94, 20-20l 40,0 l0-20 l0-140 L 520,348 z M 460,508L 140,508 l0-20 l 320,0 L 460,508 z M 340,88c0-22.080-17.92-40-40-40s-40,17.92-40,40L 260,288 l 80,0 L 340,88 z
	 M 300,116.34c-11.060,0-20-8.96-20-20c0-11.060, 8.94-20, 20-20c 11.040,0, 20,8.94, 20,20C 320,107.38, 311.040,116.34, 300,116.34z" data-tags="paint, tool" />
<glyph unicode="&#xe117;" d="M 246.24,407.7L 178.66,457.98l 67.58,48.5l 213.12,0 l0-98.76 L 246.24,407.72 z M 320.64,547.94l 58.56,0 
	L 379.2,528 l-58.56,0 L 320.64,547.94 z M 378.86,386.020l 22.080-352.080c0-14.3-11.56-25.86-25.86-25.86l-50.46,0 c-14.3,0-25.86,11.56-25.86,25.86
	l 20.9,352.080L 378.86,386.020 z M 350.54,35.96c 11,0, 19.92,8.9, 19.92,19.92s-8.92,19.92-19.92,19.92c-11.020,0-19.94-8.9-19.94-19.92
	S 339.54,35.96, 350.54,35.96z" data-tags="hammer, tool, fix" />
<glyph unicode="&#xe118;" d="M 111.64,206.92L 409.36,504.64l 127.38-127.38L 239.020,79.54L 111.64,206.92z
	 M 423.060,432.84l-13.96,13.94L 169.48,207.18l 13.96-13.96L 423.060,432.84z M 450.98,404.92l-13.96,13.96L 197.4,179.24l 13.94-13.94
	L 450.98,404.92z M 478.9,377l-13.96,13.96L 225.32,151.34l 13.96-13.96L 478.9,377z M 466.38,560.88
	c 15.62,15.66, 40.9,15.76, 56.4,0.26l 70.24-70.24c 15.5-15.5, 15.4-40.76-0.24-56.4l-43.4-43.4l-126.4,126.4L 466.38,560.88z
	 M 101.84,190.34l 120.6-120.6L 116.76,32.2l-52.46,52.46L 101.84,190.34z M 96.74,25.66l-61.32-22.34l 22.34,61.32L 96.74,25.66z" data-tags="pencil, write, writing, blog, edit" />
<glyph unicode="&#xe119;" d="M 580.48,478.020l-49.34-49.34l-70.46,70.46l 49.34,49.34
	c 19.46,19.46, 51.020,19.46, 70.46,0S 599.94,497.48, 580.48,478.020z M 552.28,421.66c 3.9,3.88, 10.22,3.88, 14.1,0
	c 3.9-3.9, 3.9-10.22,0-14.1l-183.2-183.22c-3.9-3.88-10.22-3.88-14.1,0s-3.88,10.2,0,14.080l 119.8,119.8l-98.68,98.68
	l 42.28,42.26l 98.66-98.66L 552.28,421.66z M 390.22,428.68l 70.46-70.46L 178.8,76.34L 108.34,146.8L 392.6,431.060L 390.22,428.68z
	 M 44.92,12.92l 49.32,119.78l 70.46-70.46L 44.92,12.92z" data-tags="pen, writing, write, blog, edit" />
</font>
</defs>
</svg>
